<svg fill="none" height="32" viewBox="0 0 179 32" width="179" xmlns="http://www.w3.org/2000/svg" xmlns:xlink="http://www.w3.org/1999/xlink"><linearGradient id="a" gradientUnits="userSpaceOnUse" x1="133.377" x2="133.377" y1="-5.6" y2="36.8"><stop offset="0" stop-color="#da51c7"/><stop offset=".21875" stop-color="#b81fa8"/><stop offset="1" stop-color="#911d9f"/></linearGradient><clipPath id="b"><path d="m7 10h18.3081v12h-18.3081z"/></clipPath><rect fill="url(#a)" height="32" rx="4" width="178.308"/><g clip-path="url(#b)"><path d="m24.0763 12.6147c-.5135-.5945-1.1725-1.0572-1.9008-1.2845-.4005-.7848-1.2102-1.3302-2.1512-1.3302-1.3361 0-2.4231 1.0861-2.4231 2.421s1.0864 2.421 2.4231 2.421c1.118 0 2.0523-.7646 2.3303-1.7949.2106.1412.4139.3181.6017.5353.5196.6019.871 1.4405.871 2.3692 0 1.8198-1.4768 3.2953-3.2982 3.2953-.7282 0-1.299-.1406-1.8429-.5878-.5748-.4734-1.1907-1.349-1.8443-2.9825-.6919-1.729-1.4229-2.8716-2.2784-3.5744-.8864-.7296-1.8294-.9253-2.7846-.9253-2.63914 0-4.7789 2.1378-4.7789 4.7747 0 1.3.49001 2.4788 1.23176 3.337.73501.8507 1.76753 1.4378 2.87414 1.4378.2746 0 .5465-.033.7956-.076l.4408 1.1748c.0788.2098.3648.2374.482.0464l1.7917-2.9173c.0949-.1547.0121-.3571-.1642-.4015l-3.1844-.7962c-.2107-.0525-.3938.1527-.3177.3551l.4173 1.1109c-.0882.0101-.1777.0243-.2611.0243-.5762 0-1.22642-.3161-1.75345-.9261-.5203-.6019-.87165-1.4405-.87165-2.3692 0-1.8198 1.47676-3.2952 3.2981-3.2952.7277 0 1.2991.1405 1.843.5877.5748.4735 1.1907 1.3491 1.8442 2.9826.692 1.729 1.423 2.8715 2.2785 3.5743.8864.7297 1.8301.9254 2.7845.9254 2.6399 0 4.779-2.1379 4.779-4.7748 0-1.2999-.49-2.4788-1.2318-3.3369zm-4.052.7478c-.5189 0-.9423-.423-.9423-.9415s.4234-.9415.9423-.9415c.519 0 .9423.423.9423.9415s-.4233.9415-.9423.9415z" fill="#fff"/></g><path d="m42.2829 20.5v-8.8727h5.5627v1.1524h-4.224v2.7034h3.9338v1.1481h-3.9338v2.7164h4.276v1.1524zm9.9821.13c-.5372 0-1.0167-.1372-1.4384-.4116-.4188-.2773-.748-.6715-.9878-1.1827-.2368-.5142-.3552-1.1308-.3552-1.85s.1199-1.3344.3596-1.8456c.2426-.5112.5747-.9026.9964-1.174.4217-.2715.8997-.4073 1.434-.4073.4131 0 .7452.0693.9965.208.2542.1357.4506.2946.5892.4765.1415.182.2513.3423.3293.4809h.0779v-3.2969h1.2954v8.8727h-1.265v-1.0354h-.1083c-.078.1415-.1907.3032-.338.4852-.1444.1819-.3437.3408-.5978.4765-.2542.1358-.5835.2037-.9878.2037zm.2859-1.1048c.3726 0 .6874-.0982.9445-.2946.2599-.1993.4563-.4751.5892-.8275.1357-.3523.2036-.7625.2036-1.2304 0-.4621-.0664-.8665-.1993-1.213-.1328-.3466-.3278-.6167-.5849-.8102-.257-.1935-.5747-.2903-.9531-.2903-.3899 0-.7148.1011-.9748.3033-.2599.2022-.4563.478-.5892.8275-.1299.3495-.1949.7437-.1949 1.1827 0 .4448.0664.8448.1993 1.2001.1328.3553.3292.6369.5892.8448.2628.2051.5863.3076.9704.3076zm5.1039.9748v-6.6545h1.2954v6.6545zm.6542-7.6813c-.2253 0-.4188-.0751-.5806-.2253-.1588-.1531-.2383-.335-.2383-.5459 0-.2137.0795-.3957.2383-.5459.1618-.153.3553-.2296.5806-.2296.2252 0 .4173.0766.5762.2296.1617.1502.2426.3322.2426.5459 0 .2109-.0809.3928-.2426.5459-.1589.1502-.351.2253-.5762.2253zm5.7342 1.0268v1.0397h-3.6349v-1.0397zm-2.6601-1.5944h1.2954v6.295c0 .2513.0375.4405.1126.5675.0751.1242.1719.2094.2903.2556.1213.0434.2527.065.3942.065.104 0 .195-.0072.273-.0216.078-.0145.1386-.026.1819-.0347l.234 1.0701c-.0751.0289-.182.0578-.3206.0867-.1386.0317-.3119.0491-.5199.0519-.3408.0058-.6585-.0548-.9531-.1819s-.5329-.3235-.7149-.5892c-.1819-.2657-.2729-.5993-.2729-1.0008zm7.8097 8.2489v-6.6545h1.2954v6.6545zm.6542-7.6813c-.2253 0-.4188-.0751-.5805-.2253-.1589-.1531-.2383-.335-.2383-.5459 0-.2137.0794-.3957.2383-.5459.1617-.153.3552-.2296.5805-.2296s.4174.0766.5762.2296c.1618.1502.2426.3322.2426.5459 0 .2109-.0808.3928-.2426.5459-.1588.1502-.3509.2253-.5762.2253zm3.9233 3.7302v3.9511h-1.2954v-6.6545h1.2434v1.0831h.0823c.1531-.3524.3928-.6355.7192-.8492.3293-.2137.7437-.3206 1.2434-.3206.4535 0 .8506.0953 1.1914.2859.3408.1878.6051.4679.7928.8405.1878.3726.2816.8333.2816 1.3821v4.2327h-1.2953v-4.0768c0-.4823-.1257-.8592-.377-1.1307-.2512-.2744-.5964-.4116-1.0354-.4116-.3004 0-.5676.065-.8015.195-.2311.1299-.4145.3205-.5502.5718-.1329.2484-.1993.5488-.1993.9012zm11.554 3.9511-2.4608-8.8727h1.408l1.7286 6.8711h.0824l1.7979-6.8711h1.395l1.798 6.8755h.0823l1.7243-6.8755h1.4123l-2.4651 8.8727h-1.3474l-1.8672-6.6459h-.0693l-1.8673 6.6459zm12.5415.1343c-.6557 0-1.2203-.1401-1.694-.4202-.4708-.2831-.8347-.6802-1.0917-1.1914-.2542-.5142-.3813-1.1164-.3813-1.8066 0-.6817.1271-1.2824.3813-1.8023.257-.5199.6152-.9257 1.0744-1.2174.4621-.2917 1.0022-.4376 1.6203-.4376.3755 0 .7394.0621 1.0918.1863.3523.1242.6686.3192.9487.5849.2807.2657.5007.6108.6627 1.0354.162.4217.243.9344.243 1.538v.4592h-5.29v-.9704h4.0204c0-.3408-.0693-.6426-.2079-.9055-.1387-.2657-.3336-.4751-.5849-.6282-.2484-.1531-.5401-.2296-.8751-.2296-.364 0-.6817.0895-.9532.2686-.2686.1762-.4765.4073-.6238.6932-.1444.283-.2166.5906-.2166.9228v.7582c0 .4448.0779.8231.2339 1.135.1589.312.3798.5503.6629.7149.283.1617.6137.2426.9921.2426.2455 0 .4693-.0347.6715-.104.2022-.0722.3769-.179.5242-.3206.1473-.1415.26-.3162.3379-.5242l1.2266.221c-.099.361-.275.6773-.529.9488-.2513.2686-.5676.478-.9488.6282-.3784.1473-.8102.2209-1.2954.2209zm4.6402-.1343v-8.8727h1.295v3.2969h.078c.076-.1386.184-.2989.325-.4809.142-.1819.338-.3408.59-.4765.251-.1387.583-.208.996-.208.537 0 1.017.1358 1.438.4073.422.2714.753.6628.992 1.174.243.5112.364 1.1264.364 1.8456s-.119 1.3358-.359 1.85c-.24.5112-.569.9054-.988 1.1827-.419.2744-.897.4116-1.434.4116-.404 0-.735-.0679-.992-.2037-.254-.1357-.454-.2946-.598-.4765-.144-.182-.256-.3437-.334-.4852h-.108v1.0354zm1.269-3.3273c0 .4679.068.8781.204 1.2304.136.3524.332.6282.589.8275.257.1964.572.2946.945.2946.387 0 .71-.1025.97-.3076.26-.2079.457-.4895.589-.8448.136-.3553.204-.7553.204-1.2001 0-.439-.066-.8332-.199-1.1827-.13-.3495-.327-.6253-.589-.8275-.26-.2022-.585-.3033-.975-.3033-.376 0-.693.0968-.953.2903-.257.1935-.452.4636-.585.8102-.133.3465-.2.7509-.2 1.213zm10.085 3.3273v-8.8727h3.162c.691 0 1.263.1256 1.716.3769s.793.595 1.018 1.0311c.225.4332.338.9214.338 1.4643 0 .5459-.114 1.0369-.342 1.4731-.226.4332-.566.7769-1.023 1.0311-.453.2512-1.024.3769-1.711.3769h-2.175v-1.1351h2.054c.436 0 .79-.0751 1.061-.2253.272-.1531.471-.361.598-.6239.127-.2628.191-.5617.191-.8968 0-.335-.064-.6325-.191-.8924-.127-.26-.328-.4636-.602-.6109-.272-.1473-.63-.2209-1.075-.2209h-1.681v7.7246zm12.159-2.7597v-3.8948h1.3v6.6545h-1.274v-1.1524h-.069c-.154.3552-.399.6513-.737.8881-.335.234-.752.3509-1.252.3509-.428 0-.806-.0938-1.135-.2816-.327-.1906-.584-.4722-.771-.8448-.185-.3726-.278-.8332-.278-1.382v-4.2327h1.296v4.0767c0 .4535.125.8145.377 1.0831.251.2686.577.4029.979.4029.242 0 .484-.0606.723-.1819.243-.1213.444-.3047.603-.5502.161-.2455.241-.5575.238-.9358zm3.388 2.7597v-8.8727h1.295v3.2969h.078c.076-.1386.184-.2989.325-.4809.142-.1819.338-.3408.59-.4765.251-.1387.583-.208.996-.208.537 0 1.017.1358 1.438.4073.422.2714.753.6628.992 1.174.243.5112.364 1.1264.364 1.8456s-.119 1.3358-.359 1.85c-.24.5112-.569.9054-.988 1.1827-.419.2744-.897.4116-1.434.4116-.404 0-.735-.0679-.992-.2037-.254-.1357-.454-.2946-.598-.4765-.144-.182-.256-.3437-.334-.4852h-.108v1.0354zm1.269-3.3273c0 .4679.068.8781.204 1.2304.136.3524.332.6282.589.8275.257.1964.572.2946.945.2946.387 0 .71-.1025.97-.3076.26-.2079.457-.4895.589-.8448.136-.3553.204-.7553.204-1.2001 0-.439-.066-.8332-.199-1.1827-.13-.3495-.327-.6253-.589-.8275-.26-.2022-.585-.3033-.975-.3033-.376 0-.693.0968-.953.2903-.257.1935-.452.4636-.585.8102-.133.3465-.2.7509-.2 1.213zm7.803-5.5454v8.8727h-1.295v-8.8727zm1.987 8.8727v-6.6545h1.295v6.6545zm.654-7.6813c-.225 0-.419-.0751-.58-.2253-.159-.1531-.239-.335-.239-.5459 0-.2137.08-.3957.239-.5459.161-.153.355-.2296.58-.2296.226 0 .418.0766.576.2296.162.1502.243.3322.243.5459 0 .2109-.081.3928-.243.5459-.158.1502-.35.2253-.576.2253zm7.615 2.6514-1.174.208c-.049-.1502-.127-.2932-.234-.429-.104-.1357-.246-.2469-.425-.3335-.179-.0867-.403-.13-.671-.13-.367 0-.673.0823-.919.2469-.245.1618-.368.3712-.368.6282 0 .2224.082.4015.247.5372.164.1358.43.247.797.3336l1.057.2426c.612.1416 1.069.3596 1.369.6542.301.2946.451.6773.451 1.1481 0 .3986-.116.7539-.347 1.0658-.228.309-.547.5516-.957.7278-.408.1762-.88.2643-1.417.2643-.745 0-1.353-.1589-1.824-.4766-.471-.3206-.76-.7755-.866-1.3647l1.252-.1906c.078.3264.238.5733.481.7409.242.1646.558.2469.948.2469.425 0 .764-.0881 1.018-.2643.255-.179.382-.3971.382-.6542 0-.2079-.078-.3827-.234-.5242-.153-.1415-.389-.2484-.706-.3206l-1.127-.2469c-.621-.1416-1.08-.3668-1.378-.6759-.294-.309-.441-.7004-.441-1.1741 0-.3928.109-.7365.329-1.0311.219-.2946.523-.5242.91-.6888.387-.1675.83-.2513 1.33-.2513.719 0 1.285.156 1.698.4679.413.309.686.7235.819 1.2434zm3.093 1.0788v3.9511h-1.295v-8.8727h1.278v3.3013h.082c.156-.3582.395-.6427.715-.8535.321-.2109.74-.3163 1.257-.3163.456 0 .855.0939 1.195.2816.344.1877.61.4679.797.8405.191.3697.286.8318.286 1.3864v4.2327h-1.295v-4.0768c0-.4881-.126-.8665-.377-1.1351-.251-.2715-.601-.4072-1.048-.4072-.306 0-.581.065-.823.195-.24.1299-.429.3205-.568.5718-.136.2484-.204.5488-.204.9012zm9.156 4.0854c-.656 0-1.22-.1401-1.694-.4202-.471-.2831-.835-.6802-1.092-1.1914-.254-.5142-.381-1.1164-.381-1.8066 0-.6817.127-1.2824.381-1.8023.257-.5199.616-.9257 1.075-1.2174.462-.2917 1.002-.4376 1.62-.4376.376 0 .74.0621 1.092.1863s.669.3192.949.5849.501.6108.663 1.0354c.161.4217.242.9344.242 1.538v.4592h-5.29v-.9704h4.021c0-.3408-.07-.6426-.208-.9055-.139-.2657-.334-.4751-.585-.6282-.248-.1531-.54-.2296-.875-.2296-.364 0-.682.0895-.953.2686-.269.1762-.477.4073-.624.6932-.145.283-.217.5906-.217.9228v.7582c0 .4448.078.8231.234 1.135.159.312.38.5503.663.7149.283.1617.614.2426.992.2426.246 0 .469-.0347.672-.104.202-.0722.377-.179.524-.3206.147-.1415.26-.3162.338-.5242l1.226.221c-.098.361-.275.6773-.529.9488-.251.2686-.567.478-.949.6282-.378.1473-.81.2209-1.295.2209zm4.536-.1343v-6.6545h1.252v1.0571h.07c.121-.3582.335-.6398.641-.8449.309-.2079.659-.3119 1.048-.3119.081 0 .177.0029.286.0087.113.0058.201.013.265.0216v1.2391c-.052-.0144-.145-.0303-.278-.0477-.133-.0202-.265-.0303-.398-.0303-.306 0-.579.065-.819.195-.237.1271-.425.3047-.563.5329-.139.2252-.208.4823-.208.7711v4.0638z" fill="#fff"/><path d="m32 0h1v32h-1z" fill="#e151ff"/></svg>