<svg fill="none" height="20" viewBox="0 0 143 20" width="143" xmlns="http://www.w3.org/2000/svg" xmlns:xlink="http://www.w3.org/1999/xlink"><linearGradient id="a" gradientUnits="userSpaceOnUse" x1="106.448" x2="106.448" y1="-3.5" y2="23"><stop offset="0" stop-color="#da51c7"/><stop offset=".21875" stop-color="#b81fa8"/><stop offset="1" stop-color="#911d9f"/></linearGradient><clipPath id="b"><path d="m6 4h18.3081v12h-18.3081z"/></clipPath><rect fill="url(#a)" height="20" rx="4" width="142.308"/><g clip-path="url(#b)"><path d="m23.0763 6.61468c-.5135-.59449-1.1725-1.05717-1.9008-1.28448-.4005-.7848-1.2102-1.3302-2.1512-1.3302-1.3361 0-2.4231 1.08609-2.4231 2.421s1.0864 2.42099 2.4231 2.42099c1.118 0 2.0523-.76463 2.3303-1.7949.2106.14123.4139.31809.6017.53531.5196.60189.871 1.44049.871 2.36921 0 1.81979-1.4768 3.29529-3.2982 3.29529-.7282 0-1.299-.1406-1.8429-.5878-.5748-.4734-1.1907-1.349-1.8443-2.98254-.6919-1.72899-1.4229-2.87157-2.2784-3.57433-.8864-.72966-1.8294-.92536-2.7846-.92536-2.63914 0-4.7789 2.13788-4.7789 4.77474 0 1.29999.49001 2.47879 1.23176 3.33699.73501.8507 1.76753 1.4378 2.87414 1.4378.2746 0 .5465-.033.7956-.076l.4408 1.1748c.0788.2098.3648.2374.482.0464l1.7917-2.9173c.0949-.1547.0121-.3571-.1642-.4015l-3.1844-.7962c-.2107-.0525-.39376.1527-.3177.3551l.4173 1.1109c-.0882.0101-.1777.0243-.2611.0243-.57621 0-1.22642-.3161-1.75345-.9261-.5203-.6019-.87165-1.4405-.87165-2.36919 0-1.81978 1.47676-3.29524 3.2981-3.29524.7277 0 1.2991.14055 1.843.58776.5748.47344 1.1907 1.34904 1.8442 2.98257.692 1.729 1.423 2.8715 2.2785 3.5743.8864.7297 1.8301.9254 2.7845.9254 2.6399 0 4.779-2.1379 4.779-4.77479 0-1.29994-.49-2.47883-1.2318-3.33693zm-4.052.74781c-.5189 0-.9423-.423-.9423-.94149 0-.5185.4234-.9415.9423-.9415.519 0 .9423.423.9423.9415 0 .51849-.4233.94149-.9423.94149z" fill="#fff"/></g><path d="m44.2456 10.5c0 .862-.1615 1.6003-.4844 2.2148-.3203.612-.7578 1.0808-1.3125 1.4063-.5521.3255-1.1784.4883-1.8789.4883s-1.3281-.1628-1.8828-.4883c-.5521-.3281-.9896-.7982-1.3125-1.4102-.3203-.6145-.4805-1.3515-.4805-2.2109 0-.86198.1602-1.59896.4805-2.21094.3229-.61458.7604-1.08463 1.3125-1.41015.5547-.32552 1.1823-.48829 1.8828-.48829s1.3268.16277 1.8789.48829c.5547.32552.9922.79557 1.3125 1.41015.3229.61198.4844 1.34896.4844 2.21094zm-1.457 0c0-.60677-.0951-1.11849-.2852-1.53516-.1875-.41927-.4479-.73567-.7812-.94921-.3334-.21615-.7175-.32422-1.1524-.32422s-.819.10807-1.1523.32422c-.3334.21354-.5951.52994-.7852.94921-.1875.41667-.2812.92839-.2812 1.53516 0 .6068.0937 1.1198.2812 1.5391.1901.4166.4518.733.7852.9492.3333.2135.7174.3203 1.1523.3203s.819-.1068 1.1524-.3203c.3333-.2162.5937-.5326.7812-.9492.1901-.4193.2852-.9323.2852-1.5391zm2.9296 6.25v-8.25h1.3906v.99219h.0821c.0729-.14584.1758-.30078.3086-.46485.1328-.16666.3125-.30859.539-.42578.2266-.11979.5157-.17968.8672-.17968.4636 0 .8815.11848 1.2539.35546.375.23438.6719.58203.8907 1.04297.2213.45829.332 1.02079.332 1.68749 0 .6589-.1081 1.2188-.3242 1.6797-.2162.4609-.5105.8125-.8828 1.0547-.3724.2422-.7943.3633-1.2657.3633-.3437 0-.6289-.0573-.8554-.1719-.2266-.1146-.4089-.2526-.5469-.4141-.1354-.164-.2409-.319-.3164-.4648h-.0586v3.1953zm1.3867-5.25c0 .388.0547.7279.1641 1.0195.112.2917.2721.5196.4805.6836.2109.1615.4661.2422.7656.2422.3125 0 .5742-.0833.7852-.25.2109-.1693.3697-.3997.4765-.6914.1094-.2943.1641-.6289.1641-1.0039 0-.3724-.0534-.7031-.1602-.9922-.1067-.2891-.2656-.51561-.4765-.67968-.211-.16406-.474-.24609-.7891-.24609-.3021 0-.5586.07943-.7695.23828-.211.15886-.3711.38149-.4805.66799-.1068.2864-.1602.6237-.1602 1.0117zm8.3096 3.1172c-.6016 0-1.1211-.125-1.5586-.375-.4349-.2526-.7696-.6094-1.0039-1.0703-.2344-.4636-.3516-1.0091-.3516-1.6367 0-.6172.1172-1.1589.3516-1.62504.237-.46875.5677-.83334.9922-1.09375.4244-.26302.9231-.39453 1.4961-.39453.3697 0 .7187.05989 1.0468.17968.3308.11719.6224.29948.875.54688.2552.24739.4558.5625.6016.94526.1458.3803.2187.8334.2187 1.3594v.4336h-4.9179v-.9531h3.5625c-.0026-.2708-.0612-.5117-.1758-.7227-.1146-.2135-.2747-.38147-.4805-.50387-.2031-.12239-.4401-.18359-.7109-.18359-.2891 0-.543.07031-.7617.21093-.2188.13803-.3894.32033-.5118.54683-.1197.224-.1809.4701-.1835.7383v.8321c0 .3489.0638.6484.1914.8984.1276.2474.3059.4375.5351.5703.2292.1302.4974.1953.8047.1953.2057 0 .3919-.0286.5586-.0859.1667-.0599.3112-.1471.4336-.2617s.2148-.2565.2773-.4258l1.3203.1484c-.0833.349-.2421.6537-.4765.9141-.2318.2578-.5287.4583-.8906.6015-.362.1407-.7761.211-1.2422.211zm5.4433-3.6328v3.5156h-1.4141v-6h1.3516v1.01953h.0703c.138-.33594.3581-.60286.6602-.80078.3047-.19792.681-.29687 1.1289-.29687.414 0 .7747.08854 1.082.26562.3099.17708.5495.43359.7188.76953.1718.33594.2565.74347.2539 1.22267v3.8203h-1.4141v-3.6016c0-.401-.1042-.7148-.3125-.94137-.2057-.22656-.4909-.33984-.8555-.33984-.2474 0-.4674.05468-.6601.16406-.1901.10677-.3399.26175-.4492.46485-.1068.2031-.1602.4492-.1602.7383zm8.3476 3.5156v-6h1.414v6zm.7109-6.85156c-.2239 0-.4167-.07422-.5781-.22266-.1615-.15104-.2422-.33203-.2422-.54297 0-.21354.0807-.39453.2422-.54297.1614-.15104.3542-.22656.5781-.22656.2266 0 .4193.07552.5781.22656.1615.14844.2422.32943.2422.54297 0 .21094-.0807.39193-.2422.54297-.1588.14844-.3515.22266-.5781.22266zm3.7363 3.33596v3.5156h-1.4141v-6h1.3516v1.01953h.0703c.138-.33594.3581-.60286.6602-.80078.3047-.19792.681-.29687 1.1289-.29687.414 0 .7747.08854 1.082.26562.3099.17708.5495.43359.7188.76953.1718.33594.2565.74347.2539 1.22267v3.8203h-1.4141v-3.6016c0-.401-.1042-.7148-.3125-.94137-.2057-.22656-.4909-.33984-.8555-.33984-.2474 0-.4674.05468-.6601.16406-.1901.10677-.3399.26175-.4492.46485-.1068.2031-.1602.4492-.1602.7383zm15.2577-1.78518h-1.4609c-.0417-.23958-.1185-.45182-.2305-.63672-.112-.1875-.2513-.34635-.4179-.47656-.1667-.13021-.3568-.22787-.5704-.29297-.2109-.06771-.4388-.10156-.6835-.10156-.4349 0-.8204.10937-1.1563.32812-.3359.21615-.599.53386-.7891.95313-.1901.41666-.2851.92578-.2851 1.52734 0 .612.095 1.1276.2851 1.5469.1927.4166.4558.7317.7891.9453.3359.2109.7201.3164 1.1523.3164.2396 0 .4636-.0313.6719-.0938.211-.0651.3998-.1601.5664-.2851.1693-.125.3112-.2787.4258-.461.1172-.1822.1979-.3906.2422-.625l1.4609.0079c-.0547.3802-.1731.7369-.3554 1.0703-.1797.3333-.4154.6276-.7071.8828-.2916.2526-.6328.4505-1.0234.5937-.3906.1407-.8242.211-1.3008.211-.7031 0-1.3307-.1628-1.8828-.4883s-.987-.7956-1.3047-1.4102c-.3177-.6145-.4765-1.3515-.4765-2.2109 0-.86198.1601-1.59896.4804-2.21094.3203-.61458.7565-1.08463 1.3086-1.41015s1.1771-.48829 1.875-.48829c.4453 0 .8594.0625 1.2422.1875s.724.3086 1.0234.55079c.2995.23958.5456.53385.7383.88281.1953.34635.3229.74219.3828 1.1875zm4.0469 5.41798c-.586 0-1.0938-.1289-1.5235-.3867s-.763-.6185-1-1.0821c-.2343-.4635-.3515-1.0052-.3515-1.625s.1172-1.1627.3515-1.62887c.237-.46614.5703-.82812 1-1.08594.4297-.25781.9375-.38671 1.5235-.38671.5859 0 1.0937.1289 1.5234.38671.4297.25782.7617.6198.9961 1.08594.237.46617.3555 1.00907.3555 1.62887s-.1185 1.1615-.3555 1.625c-.2344.4636-.5664.8243-.9961 1.0821s-.9375.3867-1.5234.3867zm.0078-1.1328c.3177 0 .5833-.0873.7969-.2617.2135-.1771.3724-.4141.4765-.711.1068-.2969.1602-.6276.1602-.9922 0-.3672-.0534-.6992-.1602-.9961-.1041-.2994-.263-.53772-.4765-.71481-.2136-.17708-.4792-.26562-.7969-.26562-.3255 0-.5964.08854-.8125.26562-.2136.17709-.3737.41541-.4805.71481-.1042.2969-.1562.6289-.1562.9961 0 .3646.052.6953.1562.9922.1068.2969.2669.5339.4805.711.2161.1744.487.2617.8125.2617zm6.4589 1.1211c-.4713 0-.8932-.1211-1.2656-.3633s-.6667-.5938-.8828-1.0547c-.2162-.4609-.3242-1.0208-.3242-1.6797 0-.6667.1093-1.2292.3281-1.68749.2214-.46094.5195-.80859.8945-1.04297.375-.23698.793-.35546 1.2539-.35546.3516 0 .6402.05989.8672.17968.227.11719.406.25912.539.42578.133.16407.236.31901.309.46485h.058v-2.99219h1.418v8h-1.39v-.9453h-.086c-.073.1458-.179.3008-.317.4648-.138.1615-.32.2995-.547.4141-.226.1146-.5113.1719-.8551.1719zm.3946-1.1602c.2995 0 .5545-.0807.7655-.2422.211-.164.371-.3919.481-.6836.109-.2916.164-.6315.164-1.0195s-.055-.7253-.164-1.0117c-.107-.2865-.266-.50913-.477-.66799-.208-.15885-.465-.23828-.7695-.23828-.3151 0-.5782.08203-.7891.24609-.2109.16407-.3698.39058-.4766.67968-.1067.2891-.1601.6198-.1601.9922 0 .375.0534.7096.1601 1.0039.1094.2917.2696.5221.4805.6914.2135.1667.4753.25.7852.25zm7.1285 1.1719c-.601 0-1.121-.125-1.558-.375-.435-.2526-.77-.6094-1.004-1.0703-.235-.4636-.352-1.0091-.352-1.6367 0-.6172.117-1.1589.352-1.62504.237-.46875.568-.83334.992-1.09375.424-.26302.923-.39453 1.496-.39453.37 0 .719.05989 1.047.17968.331.11719.622.29948.875.54688.255.24739.456.5625.602.94526.145.3803.218.8334.218 1.3594v.4336h-4.918v-.9531h3.563c-.003-.2708-.061-.5117-.176-.7227-.115-.2135-.275-.38147-.48-.50387-.204-.12239-.441-.18359-.711-.18359-.289 0-.543.07031-.762.21093-.219.13803-.389.32033-.512.54683-.12.224-.181.4701-.183.7383v.8321c0 .3489.063.6484.191.8984.128.2474.306.4375.535.5703.229.1302.498.1953.805.1953.206 0 .392-.0286.558-.0859.167-.0599.312-.1471.434-.2617s.215-.2565.277-.4258l1.321.1484c-.084.349-.242.6537-.477.9141-.232.2578-.529.4583-.89.6015-.362.1407-.777.211-1.243.211zm7.069-6.1172v1.09375h-3.547v-1.09375zm-2.661 6v-6.56641c0-.40364.084-.73958.25-1.00781.17-.26823.396-.46875.68-.60156s.599-.19922.945-.19922c.245 0 .463.01953.653.05859.19.03907.331.07422.422.10547l-.282 1.09375c-.059-.01823-.135-.03646-.226-.05469-.091-.02083-.193-.03125-.305-.03125-.263 0-.449.06381-.558.19141-.107.125-.161.30469-.161.53906v6.47266zm5.347-8v8h-1.414v-8zm4.236 8.1172c-.586 0-1.093-.1289-1.523-.3867s-.763-.6185-1-1.0821c-.234-.4635-.352-1.0052-.352-1.625s.118-1.1627.352-1.62887c.237-.46614.57-.82812 1-1.08594.43-.25781.937-.38671 1.523-.38671s1.094.1289 1.524.38671c.43.25782.762.6198.996 1.08594.237.46617.355 1.00907.355 1.62887s-.118 1.1615-.355 1.625c-.234.4636-.566.8243-.996 1.0821s-.938.3867-1.524.3867zm.008-1.1328c.318 0 .584-.0873.797-.2617.214-.1771.372-.4141.477-.711.106-.2969.16-.6276.16-.9922 0-.3672-.054-.6992-.16-.9961-.105-.2994-.263-.53772-.477-.71481-.213-.17708-.479-.26562-.797-.26562-.325 0-.596.08854-.812.26562-.214.17709-.374.41541-.481.71481-.104.2969-.156.6289-.156.9961 0 .3646.052.6953.156.9922.107.2969.267.5339.481.711.216.1744.487.2617.812.2617zm5.299 1.0156-1.695-6h1.441l1.055 4.2187h.054l1.079-4.2187h1.425l1.079 4.1953h.058l1.039-4.1953h1.445l-1.699 6h-1.472l-1.125-4.0547h-.082l-1.125 4.0547z" fill="#fff"/><path d="m30 0h1v20h-1z" fill="#e151ff"/></svg>