<svg fill="none" height="20" viewBox="0 0 161 20" width="161" xmlns="http://www.w3.org/2000/svg" xmlns:xlink="http://www.w3.org/1999/xlink"><linearGradient id="a" gradientUnits="userSpaceOnUse" x1="119.913" x2="119.913" y1="-3.5" y2="23"><stop offset="0" stop-color="#da51c7"/><stop offset=".21875" stop-color="#b81fa8"/><stop offset="1" stop-color="#911d9f"/></linearGradient><clipPath id="b"><path d="m6 4h18.3081v12h-18.3081z"/></clipPath><rect fill="url(#a)" height="20" rx="4" width="160.308"/><g clip-path="url(#b)"><path d="m23.0763 6.61468c-.5135-.59449-1.1725-1.05717-1.9008-1.28448-.4005-.7848-1.2102-1.3302-2.1512-1.3302-1.3361 0-2.4231 1.08609-2.4231 2.421s1.0864 2.42099 2.4231 2.42099c1.118 0 2.0523-.76463 2.3303-1.7949.2106.14123.4139.31809.6017.53531.5196.60189.871 1.44049.871 2.36921 0 1.81979-1.4768 3.29529-3.2982 3.29529-.7282 0-1.299-.1406-1.8429-.5878-.5748-.4734-1.1907-1.349-1.8443-2.98254-.6919-1.72899-1.4229-2.87157-2.2784-3.57433-.8864-.72966-1.8294-.92536-2.7846-.92536-2.63914 0-4.7789 2.13788-4.7789 4.77474 0 1.29999.49001 2.47879 1.23176 3.33699.73501.8507 1.76753 1.4378 2.87414 1.4378.2746 0 .5465-.033.7956-.076l.4408 1.1748c.0788.2098.3648.2374.482.0464l1.7917-2.9173c.0949-.1547.0121-.3571-.1642-.4015l-3.1844-.7962c-.2107-.0525-.39376.1527-.3177.3551l.4173 1.1109c-.0882.0101-.1777.0243-.2611.0243-.57621 0-1.22642-.3161-1.75345-.9261-.5203-.6019-.87165-1.4405-.87165-2.36919 0-1.81978 1.47676-3.29524 3.2981-3.29524.7277 0 1.2991.14055 1.843.58776.5748.47344 1.1907 1.34904 1.8442 2.98257.692 1.729 1.423 2.8715 2.2785 3.5743.8864.7297 1.8301.9254 2.7845.9254 2.6399 0 4.779-2.1379 4.779-4.77479 0-1.29994-.49-2.47883-1.2318-3.33693zm-4.052.74781c-.5189 0-.9423-.423-.9423-.94149 0-.5185.4234-.9415.9423-.9415.519 0 .9423.423.9423.9415 0 .51849-.4233.94149-.9423.94149z" fill="#fff"/></g><path d="m37.0972 14.5v-8h5.2031v1.21484h-3.7539v2.17188h3.4844v1.21488h-3.4844v2.1836h3.7851v1.2148zm9.0107.1055c-.4714 0-.8933-.1211-1.2657-.3633-.3723-.2422-.6666-.5938-.8828-1.0547-.2161-.4609-.3242-1.0208-.3242-1.6797 0-.6667.1094-1.2292.3281-1.68749.2214-.46094.5196-.80859.8946-1.04297.375-.23698.7929-.35546 1.2539-.35546.3515 0 .6406.05989.8672.17968.2265.11719.4062.25912.539.42578.1328.16407.2357.31901.3086.46485h.0586v-2.99219h1.418v8h-1.3906v-.9453h-.086c-.0729.1458-.1784.3008-.3164.4648-.138.1615-.3203.2995-.5469.4141-.2265.1146-.5117.1719-.8554.1719zm.3945-1.1602c.2995 0 .5547-.0807.7656-.2422.211-.164.3711-.3919.4805-.6836.1094-.2916.1641-.6315.1641-1.0195s-.0547-.7253-.1641-1.0117c-.1068-.2865-.2656-.50913-.4766-.66799-.2083-.15885-.4648-.23828-.7695-.23828-.3151 0-.5781.08203-.7891.24609-.2109.16407-.3698.39058-.4765.67968-.1068.2891-.1602.6198-.1602.9922 0 .375.0534.7096.1602 1.0039.1094.2917.2695.5221.4804.6914.2136.1667.4753.25.7852.25zm4.4726 1.0547v-6h1.4141v6zm.711-6.85156c-.224 0-.4167-.07422-.5782-.22266-.1614-.15104-.2422-.33203-.2422-.54297 0-.21354.0808-.39453.2422-.54297.1615-.15104.3542-.22656.5782-.22656.2265 0 .4192.07552.5781.22656.1614.14844.2422.32943.2422.54297 0 .21094-.0808.39193-.2422.54297-.1589.14844-.3516.22266-.5781.22266zm5.3183.85156v1.09375h-3.4492v-1.09375zm-2.5977-1.4375h1.4141v5.6328c0 .1901.0286.336.0859.4375.0599.099.138.1667.2344.2031.0964.0365.2031.0547.3203.0547.0886 0 .1693-.0065.2422-.0195.0755-.013.1328-.0247.1719-.0352l.2383 1.1055c-.0756.026-.1836.0547-.3243.0859-.138.0313-.3073.0495-.5078.0547-.3541.0104-.6732-.0429-.957-.1601-.2839-.1198-.5091-.3047-.6758-.5547-.1641-.25-.2448-.5625-.2422-.9375zm6.8388 7.4375v-6h1.4141v6zm.7109-6.85156c-.2239 0-.4166-.07422-.5781-.22266-.1614-.15104-.2422-.33203-.2422-.54297 0-.21354.0808-.39453.2422-.54297.1615-.15104.3542-.22656.5781-.22656.2266 0 .4193.07552.5782.22656.1614.14844.2422.32943.2422.54297 0 .21094-.0808.39193-.2422.54297-.1589.14844-.3516.22266-.5782.22266zm3.7363 3.33596v3.5156h-1.414v-6h1.3515v1.01953h.0703c.1381-.33594.3581-.60286.6602-.80078.3047-.19792.681-.29687 1.1289-.29687.4141 0 .7748.08854 1.082.26562.3099.17708.5495.43359.7188.76953.1719.33594.2565.74347.2539 1.22267v3.8203h-1.4141v-3.6016c0-.401-.1041-.7148-.3125-.94137-.2057-.22656-.4908-.33984-.8554-.33984-.2474 0-.4675.05468-.6602.16406-.1901.10677-.3398.26175-.4492.46485-.1068.2031-.1602.4492-.1602.7383zm10.0937 3.5156-2.2578-8h1.5586l1.4414 5.8789h.0742l1.5391-5.8789h1.4179l1.543 5.8828h.0703l1.4414-5.8828h1.5586l-2.2578 8h-1.4297l-1.6015-5.61328h-.0625l-1.6055 5.61328zm11.5381.1172c-.6016 0-1.1211-.125-1.5586-.375-.4349-.2526-.7696-.6094-1.0039-1.0703-.2344-.4636-.3516-1.0091-.3516-1.6367 0-.6172.1172-1.1589.3516-1.62504.2369-.46875.5677-.83334.9921-1.09375.4245-.26302.9232-.39453 1.4961-.39453.3698 0 .7188.05989 1.0469.17968.3307.11719.6224.29948.875.54688.2552.24739.4557.5625.6016.94526.1458.3803.2187.8334.2187 1.3594v.4336h-4.9179v-.9531h3.5625c-.0026-.2708-.0612-.5117-.1758-.7227-.1146-.2135-.2748-.38147-.4805-.50387-.2031-.12239-.4401-.18359-.7109-.18359-.2891 0-.543.07031-.7618.21093-.2187.13803-.3893.32033-.5117.54683-.1198.224-.181.4701-.1836.7383v.8321c0 .3489.0638.6484.1914.8984.1276.2474.306.4375.5352.5703.2292.1302.4974.1953.8047.1953.2057 0 .3919-.0286.5586-.0859.1666-.0599.3112-.1471.4336-.2617s.2148-.2565.2773-.4258l1.3203.1484c-.0833.349-.2422.6537-.4765.9141-.2318.2578-.5287.4583-.8907.6015-.3619.1407-.776.211-1.2421.211zm4.0917-.1172v-8h1.4141v2.99219h.0586c.0729-.14584.1758-.30078.3086-.46485.1328-.16666.3125-.30859.539-.42578.2266-.11979.5157-.17968.8672-.17968.4636 0 .8815.11848 1.2539.35546.375.23438.6719.58203.8906 1.04297.2214.45829.3321 1.02079.3321 1.68749 0 .6589-.1081 1.2188-.3242 1.6797-.2162.4609-.5105.8125-.8829 1.0547-.3723.2422-.7942.3633-1.2656.3633-.3437 0-.6289-.0573-.8554-.1719-.2266-.1146-.4089-.2526-.5469-.4141-.1354-.164-.2409-.319-.3164-.4648h-.0821v.9453zm1.3867-3c0 .388.0547.7279.1641 1.0195.112.2917.2721.5196.4805.6836.2109.1615.4661.2422.7656.2422.3125 0 .5742-.0833.7851-.25.211-.1693.3698-.3997.4766-.6914.1094-.2943.1641-.6289.1641-1.0039 0-.3724-.0534-.7031-.1602-.9922s-.2656-.51561-.4765-.67968c-.211-.16406-.474-.24609-.7891-.24609-.3021 0-.5586.07943-.7695.23828-.211.15886-.3711.38149-.4805.66799-.1068.2864-.1602.6237-.1602 1.0117zm8.6002 3v-8h3c.615 0 1.131.11458 1.547.34375.419.22917.736.54427.949.94531.217.39844.325.85156.325 1.35938 0 .51302-.108.96876-.325 1.36716-.216.3985-.535.7123-.957.9414-.421.2266-.941.3399-1.558.3399h-1.988v-1.1914h1.792c.36 0 .654-.0625.883-.1875s.399-.2969.508-.51566c.112-.21875.168-.47005.168-.7539 0-.28386-.056-.53386-.168-.75-.109-.21615-.28-.38412-.512-.50391-.229-.12239-.524-.18359-.886-.18359h-1.328v6.78906zm11.006-2.5234v-3.4766h1.414v6h-1.371v-1.0664h-.062c-.136.3359-.358.6107-.668.8242-.308.2136-.687.3203-1.137.3203-.393 0-.741-.0872-1.043-.2617-.3-.1771-.534-.4336-.703-.7695-.169-.3386-.254-.7474-.254-1.2266v-3.8203h1.414v3.6016c0 .3802.104.6823.313.9062.208.224.481.3359.82.3359.208 0 .41-.0507.605-.1523.196-.1016.356-.2526.481-.4531.127-.2031.191-.4571.191-.7617zm3.096 2.5234v-8h1.414v2.99219h.058c.073-.14584.176-.30078.309-.46485.133-.16666.313-.30859.539-.42578.227-.11979.516-.17968.867-.17968.464 0 .882.11848 1.254.35546.375.23438.672.58203.891 1.04297.221.45829.332 1.02079.332 1.68749 0 .6589-.108 1.2188-.324 1.6797s-.511.8125-.883 1.0547c-.373.2422-.794.3633-1.266.3633-.344 0-.629-.0573-.855-.1719-.227-.1146-.409-.2526-.547-.4141-.136-.164-.241-.319-.317-.4648h-.082v.9453zm1.387-3c0 .388.054.7279.164 1.0195.112.2917.272.5196.48.6836.211.1615.466.2422.766.2422.312 0 .574-.0833.785-.25.211-.1693.37-.3997.476-.6914.11-.2943.164-.6289.164-1.0039 0-.3724-.053-.7031-.16-.9922-.106-.2891-.265-.51561-.476-.67968-.211-.16406-.474-.24609-.789-.24609-.302 0-.559.07943-.77.23828-.211.15886-.371.38149-.48.66799-.107.2864-.16.6237-.16 1.0117zm7.058-5v8h-1.414v-8zm1.619 8v-6h1.414v6zm.711-6.85156c-.224 0-.417-.07422-.578-.22266-.161-.15104-.242-.33203-.242-.54297 0-.21354.081-.39453.242-.54297.161-.15104.354-.22656.578-.22656.227 0 .419.07552.578.22656.162.14844.242.32943.242.54297 0 .21094-.08.39193-.242.54297-.159.14844-.351.22266-.578.22266zm7.065 2.43746-1.29.1407c-.036-.1302-.1-.25264-.191-.36722-.088-.11459-.208-.20704-.359-.27735s-.336-.10547-.555-.10547c-.294 0-.542.0638-.742.19141-.198.1276-.296.29297-.293.49613-.003.1744.061.3164.191.4257.133.1094.352.1993.657.2696l1.023.2187c.568.1224.99.3164 1.266.5821.278.2656.419.6132.421 1.0429-.002.3776-.113.711-.332 1-.216.2865-.517.5104-.902.6719s-.828.2422-1.328.2422c-.734 0-1.326-.1537-1.773-.461-.448-.3098-.715-.7408-.801-1.2929l1.379-.1328c.062.2708.195.4752.398.6132.203.1381.468.2071.793.2071.336 0 .606-.069.809-.2071.205-.138.308-.3085.308-.5117 0-.1718-.066-.3138-.199-.4258-.13-.1119-.333-.1979-.609-.2578l-1.024-.2148c-.575-.1198-1.001-.3216-1.277-.6055-.276-.2864-.413-.6484-.41-1.0859-.003-.3698.097-.69012.3-.96095.206-.27344.491-.48438.856-.63281.367-.15104.79-.22656 1.269-.22656.704 0 1.257.14973 1.661.44921.406.29948.657.70443.754 1.21481zm2.874.8985v3.5156h-1.415v-8h1.383v3.01953h.071c.14-.33854.358-.60547.652-.80078.297-.19792.674-.29687 1.133-.29687.416 0 .78.08723 1.09.26171.309.17448.549.42969.718.76563.172.33594.258.74608.258 1.23048v3.8203h-1.414v-3.6016c0-.4036-.104-.7174-.312-.94137-.206-.22656-.495-.33984-.868-.33984-.25 0-.474.05468-.671.16406-.196.10677-.349.26175-.461.46485-.11.2031-.164.4492-.164.7383zm8.153 3.6328c-.602 0-1.121-.125-1.559-.375-.435-.2526-.769-.6094-1.004-1.0703-.234-.4636-.351-1.0091-.351-1.6367 0-.6172.117-1.1589.351-1.62504.237-.46875.568-.83334.993-1.09375.424-.26302.923-.39453 1.496-.39453.369 0 .718.05989 1.046.17968.331.11719.623.29948.875.54688.256.24739.456.5625.602.94526.146.3803.219.8334.219 1.3594v.4336h-4.918v-.9531h3.562c-.002-.2708-.061-.5117-.175-.7227-.115-.2135-.275-.38147-.481-.50387-.203-.12239-.44-.18359-.711-.18359-.289 0-.543.07031-.762.21093-.218.13803-.389.32033-.511.54683-.12.224-.181.4701-.184.7383v.8321c0 .3489.064.6484.192.8984.127.2474.305.4375.535.5703.229.1302.497.1953.804.1953.206 0 .392-.0286.559-.0859.167-.0599.311-.1471.434-.2617.122-.1146.214-.2565.277-.4258l1.32.1484c-.083.349-.242.6537-.476.9141-.232.2578-.529.4583-.891.6015-.362.1407-.776.211-1.242.211zm4.029-.1172v-6h1.371v1h.063c.109-.34635.297-.61328.562-.80078.268-.19011.574-.28516.918-.28516.078 0 .166.00391.262.01172.099.00521.181.01432.246.02734v1.30079c-.06-.02084-.155-.03907-.285-.05469-.128-.01823-.252-.02735-.371-.02735-.258 0-.49.05599-.696.16797-.203.10938-.363.26176-.48.45706s-.176.4205-.176.6758v3.5273z" fill="#fff"/><path d="m30 0h1v20h-1z" fill="#e151ff"/></svg>