<svg width="117" height="20" viewBox="0 0 117 20" fill="none" xmlns="http://www.w3.org/2000/svg">
<rect width="116.308" height="20" rx="4" fill="url(#paint0_linear_249_152)"/>
<g clip-path="url(#clip0_249_152)">
<path d="M23.0763 6.61468C22.5628 6.02019 21.9038 5.55751 21.1755 5.3302C20.775 4.5454 19.9653 4 19.0243 4C17.6882 4 16.6012 5.08609 16.6012 6.421C16.6012 7.75591 17.6876 8.84199 19.0243 8.84199C20.1423 8.84199 21.0766 8.07736 21.3546 7.04709C21.5652 7.18832 21.7685 7.36518 21.9563 7.5824C22.4759 8.18429 22.8273 9.02289 22.8273 9.95161C22.8273 11.7714 21.3505 13.2469 19.5291 13.2469C18.8009 13.2469 18.2301 13.1063 17.6862 12.6591C17.1114 12.1857 16.4955 11.3101 15.8419 9.67656C15.15 7.94757 14.419 6.80499 13.5635 6.10223C12.6771 5.37257 11.7341 5.17687 10.7789 5.17687C8.13976 5.17687 6 7.31475 6 9.95161C6 11.2516 6.49001 12.4304 7.23176 13.2886C7.96677 14.1393 8.99929 14.7264 10.1059 14.7264C10.3805 14.7264 10.6524 14.6934 10.9015 14.6504L11.3423 15.8252C11.4211 16.035 11.7071 16.0626 11.8243 15.8716L13.616 12.9543C13.7109 12.7996 13.6281 12.5972 13.4518 12.5528L10.2674 11.7566C10.0567 11.7041 9.87364 11.9093 9.9497 12.1117L10.367 13.2226C10.2788 13.2327 10.1893 13.2469 10.1059 13.2469C9.52969 13.2469 8.87948 12.9308 8.35245 12.3208C7.83215 11.7189 7.4808 10.8803 7.4808 9.95161C7.4808 8.13183 8.95756 6.65637 10.7789 6.65637C11.5066 6.65637 12.078 6.79692 12.6219 7.24413C13.1967 7.71757 13.8126 8.59317 14.4661 10.2267C15.1581 11.9557 15.8891 13.0982 16.7446 13.801C17.631 14.5307 18.5747 14.7264 19.5291 14.7264C22.169 14.7264 24.3081 12.5885 24.3081 9.95161C24.3081 8.65167 23.8181 7.47278 23.0763 6.61468ZM19.0243 7.36249C18.5054 7.36249 18.082 6.93949 18.082 6.421C18.082 5.9025 18.5054 5.4795 19.0243 5.4795C19.5433 5.4795 19.9666 5.9025 19.9666 6.421C19.9666 6.93949 19.5433 7.36249 19.0243 7.36249Z" fill="white"/>
</g>
<path d="M37.0971 14.5V6.5H42.2221V7.71484H38.5464V9.88672H41.8706V11.1016H38.5464V14.5H37.0971ZM43.6449 14.5V8.5H45.059V14.5H43.6449ZM44.3559 7.64844C44.1319 7.64844 43.9392 7.57422 43.7778 7.42578C43.6163 7.27474 43.5356 7.09375 43.5356 6.88281C43.5356 6.66927 43.6163 6.48828 43.7778 6.33984C43.9392 6.1888 44.1319 6.11328 44.3559 6.11328C44.5824 6.11328 44.7752 6.1888 44.934 6.33984C45.0955 6.48828 45.1762 6.66927 45.1762 6.88281C45.1762 7.09375 45.0955 7.27474 44.934 7.42578C44.7752 7.57422 44.5824 7.64844 44.3559 7.64844ZM47.8344 8.5L49.0453 10.7148L50.2758 8.5H51.7719L49.9633 11.5L51.8031 14.5H50.3148L49.0453 12.3398L47.7875 14.5H46.2875L48.1156 11.5L46.3344 8.5H47.8344ZM58.9202 8.5V9.59375H55.471V8.5H58.9202ZM56.3226 7.0625H57.7366V12.6953C57.7366 12.8854 57.7653 13.0313 57.8226 13.1328C57.8825 13.2318 57.9606 13.2995 58.0569 13.3359C58.1533 13.3724 58.2601 13.3906 58.3773 13.3906C58.4658 13.3906 58.5465 13.3841 58.6194 13.3711C58.695 13.3581 58.7523 13.3464 58.7913 13.3359L59.0296 14.4414C58.9541 14.4674 58.846 14.4961 58.7054 14.5273C58.5674 14.5586 58.3981 14.5768 58.1976 14.582C57.8434 14.5924 57.5244 14.5391 57.2405 14.4219C56.9567 14.3021 56.7314 14.1172 56.5648 13.8672C56.4007 13.6172 56.32 13.3047 56.3226 12.9297V7.0625ZM61.8108 10.9844V14.5H60.3967V6.5H61.7796V9.51953H61.8499C61.9905 9.18099 62.2079 8.91406 62.5022 8.71875C62.7991 8.52083 63.1767 8.42188 63.635 8.42188C64.0517 8.42188 64.415 8.50911 64.7249 8.68359C65.0348 8.85807 65.2744 9.11328 65.4436 9.44922C65.6155 9.78516 65.7014 10.1953 65.7014 10.6797V14.5H64.2874V10.8984C64.2874 10.4948 64.1832 10.181 63.9749 9.95703C63.7691 9.73047 63.4801 9.61719 63.1077 9.61719C62.8577 9.61719 62.6337 9.67187 62.4358 9.78125C62.2405 9.88802 62.0869 10.043 61.9749 10.2461C61.8655 10.4492 61.8108 10.6953 61.8108 10.9844ZM67.3078 14.5V8.5H68.7219V14.5H67.3078ZM68.0188 7.64844C67.7948 7.64844 67.6021 7.57422 67.4407 7.42578C67.2792 7.27474 67.1985 7.09375 67.1985 6.88281C67.1985 6.66927 67.2792 6.48828 67.4407 6.33984C67.6021 6.1888 67.7948 6.11328 68.0188 6.11328C68.2453 6.11328 68.438 6.1888 68.5969 6.33984C68.7584 6.48828 68.8391 6.66927 68.8391 6.88281C68.8391 7.09375 68.7584 7.27474 68.5969 7.42578C68.438 7.57422 68.2453 7.64844 68.0188 7.64844ZM75.0832 10.0859L73.7941 10.2266C73.7577 10.0964 73.6939 9.97396 73.6027 9.85938C73.5142 9.74479 73.3944 9.65234 73.2433 9.58203C73.0923 9.51172 72.9074 9.47656 72.6887 9.47656C72.3944 9.47656 72.147 9.54036 71.9465 9.66797C71.7486 9.79557 71.6509 9.96094 71.6535 10.1641C71.6509 10.3385 71.7147 10.4805 71.8449 10.5898C71.9777 10.6992 72.1965 10.7891 72.5012 10.8594L73.5246 11.0781C74.0923 11.2005 74.5142 11.3945 74.7902 11.6602C75.0689 11.9258 75.2095 12.2734 75.2121 12.7031C75.2095 13.0807 75.0988 13.4141 74.8801 13.7031C74.6639 13.9896 74.3631 14.2135 73.9777 14.375C73.5923 14.5365 73.1496 14.6172 72.6496 14.6172C71.9152 14.6172 71.3241 14.4635 70.8762 14.1562C70.4282 13.8464 70.1613 13.4154 70.0754 12.8633L71.4543 12.7305C71.5168 13.0013 71.6496 13.2057 71.8527 13.3437C72.0558 13.4818 72.3202 13.5508 72.6457 13.5508C72.9816 13.5508 73.2512 13.4818 73.4543 13.3437C73.66 13.2057 73.7629 13.0352 73.7629 12.832C73.7629 12.6602 73.6965 12.5182 73.5637 12.4062C73.4335 12.2943 73.2303 12.2083 72.9543 12.1484L71.9308 11.9336C71.3553 11.8138 70.9295 11.612 70.6535 11.3281C70.3775 11.0417 70.2407 10.6797 70.2433 10.2422C70.2407 9.8724 70.341 9.55208 70.5441 9.28125C70.7499 9.00781 71.035 8.79687 71.3996 8.64844C71.7668 8.4974 72.19 8.42188 72.6691 8.42188C73.3723 8.42188 73.9256 8.57161 74.3293 8.87109C74.7355 9.17057 74.9868 9.57552 75.0832 10.0859ZM79.4366 14.5V8.5H80.8507V14.5H79.4366ZM80.1476 7.64844C79.9236 7.64844 79.7309 7.57422 79.5694 7.42578C79.408 7.27474 79.3273 7.09375 79.3273 6.88281C79.3273 6.66927 79.408 6.48828 79.5694 6.33984C79.7309 6.1888 79.9236 6.11328 80.1476 6.11328C80.3741 6.11328 80.5668 6.1888 80.7257 6.33984C80.8872 6.48828 80.9679 6.66927 80.9679 6.88281C80.9679 7.09375 80.8872 7.27474 80.7257 7.42578C80.5668 7.57422 80.3741 7.64844 80.1476 7.64844ZM87.212 10.0859L85.9229 10.2266C85.8865 10.0964 85.8227 9.97396 85.7315 9.85938C85.643 9.74479 85.5232 9.65234 85.3721 9.58203C85.2211 9.51172 85.0362 9.47656 84.8175 9.47656C84.5232 9.47656 84.2758 9.54036 84.0753 9.66797C83.8773 9.79557 83.7797 9.96094 83.7823 10.1641C83.7797 10.3385 83.8435 10.4805 83.9737 10.5898C84.1065 10.6992 84.3253 10.7891 84.63 10.8594L85.6534 11.0781C86.2211 11.2005 86.643 11.3945 86.919 11.6602C87.1977 11.9258 87.3383 12.2734 87.3409 12.7031C87.3383 13.0807 87.2276 13.4141 87.0089 13.7031C86.7927 13.9896 86.4919 14.2135 86.1065 14.375C85.7211 14.5365 85.2784 14.6172 84.7784 14.6172C84.044 14.6172 83.4529 14.4635 83.005 14.1562C82.557 13.8464 82.2901 13.4154 82.2042 12.8633L83.5831 12.7305C83.6456 13.0013 83.7784 13.2057 83.9815 13.3437C84.1846 13.4818 84.449 13.5508 84.7745 13.5508C85.1104 13.5508 85.38 13.4818 85.5831 13.3437C85.7888 13.2057 85.8917 13.0352 85.8917 12.832C85.8917 12.6602 85.8253 12.5182 85.6925 12.4062C85.5622 12.2943 85.3591 12.2083 85.0831 12.1484L84.0596 11.9336C83.4841 11.8138 83.0583 11.612 82.7823 11.3281C82.5063 11.0417 82.3695 10.6797 82.3721 10.2422C82.3695 9.8724 82.4698 9.55208 82.6729 9.28125C82.8786 9.00781 83.1638 8.79687 83.5284 8.64844C83.8956 8.4974 84.3188 8.42188 84.7979 8.42188C85.501 8.42188 86.0544 8.57161 86.4581 8.87109C86.8643 9.17057 87.1156 9.57552 87.212 10.0859ZM93.4141 10.0859L92.125 10.2266C92.0886 10.0964 92.0248 9.97396 91.9336 9.85938C91.8451 9.74479 91.7253 9.65234 91.5742 9.58203C91.4232 9.51172 91.2383 9.47656 91.0196 9.47656C90.7253 9.47656 90.4779 9.54036 90.2774 9.66797C90.0795 9.79557 89.9818 9.96094 89.9844 10.1641C89.9818 10.3385 90.0456 10.4805 90.1758 10.5898C90.3086 10.6992 90.5274 10.7891 90.8321 10.8594L91.8555 11.0781C92.4232 11.2005 92.8451 11.3945 93.1211 11.6602C93.3998 11.9258 93.5404 12.2734 93.543 12.7031C93.5404 13.0807 93.4297 13.4141 93.211 13.7031C92.9948 13.9896 92.694 14.2135 92.3086 14.375C91.9232 14.5365 91.4805 14.6172 90.9805 14.6172C90.2461 14.6172 89.655 14.4635 89.2071 14.1562C88.7591 13.8464 88.4922 13.4154 88.4063 12.8633L89.7852 12.7305C89.8477 13.0013 89.9805 13.2057 90.1836 13.3437C90.3867 13.4818 90.6511 13.5508 90.9766 13.5508C91.3125 13.5508 91.5821 13.4818 91.7852 13.3437C91.9909 13.2057 92.0938 13.0352 92.0938 12.832C92.0938 12.6602 92.0274 12.5182 91.8946 12.4062C91.7643 12.2943 91.5612 12.2083 91.2852 12.1484L90.2617 11.9336C89.6862 11.8138 89.2604 11.612 88.9844 11.3281C88.7084 11.0417 88.5716 10.6797 88.5742 10.2422C88.5716 9.8724 88.6719 9.55208 88.875 9.28125C89.0808 9.00781 89.3659 8.79687 89.7305 8.64844C90.0977 8.4974 90.5209 8.42188 91 8.42188C91.7032 8.42188 92.2565 8.57161 92.6602 8.87109C93.0664 9.17057 93.3177 9.57552 93.4141 10.0859ZM98.6982 11.9766V8.5H100.112V14.5H98.7412V13.4336H98.6787C98.5433 13.7695 98.3206 14.0443 98.0107 14.2578C97.7034 14.4714 97.3245 14.5781 96.874 14.5781C96.4808 14.5781 96.1331 14.4909 95.831 14.3164C95.5316 14.1393 95.2972 13.8828 95.1279 13.5469C94.9586 13.2083 94.874 12.7995 94.874 12.3203V8.5H96.2881V12.1016C96.2881 12.4818 96.3922 12.7839 96.6006 13.0078C96.8089 13.2318 97.0823 13.3437 97.4209 13.3437C97.6292 13.3437 97.831 13.293 98.0264 13.1914C98.2217 13.0898 98.3818 12.9388 98.5068 12.7383C98.6344 12.5352 98.6982 12.2812 98.6982 11.9766ZM104.388 14.6172C103.786 14.6172 103.267 14.4922 102.829 14.2422C102.394 13.9896 102.06 13.6328 101.825 13.1719C101.591 12.7083 101.474 12.1628 101.474 11.5352C101.474 10.918 101.591 10.3763 101.825 9.91016C102.062 9.44141 102.393 9.07682 102.817 8.81641C103.242 8.55339 103.741 8.42188 104.313 8.42188C104.683 8.42188 105.032 8.48177 105.36 8.60156C105.691 8.71875 105.983 8.90104 106.235 9.14844C106.491 9.39583 106.691 9.71094 106.837 10.0937C106.983 10.474 107.056 10.9271 107.056 11.4531V11.8867H102.138V10.9336H105.7C105.698 10.6628 105.639 10.4219 105.524 10.2109C105.41 9.9974 105.25 9.82943 105.044 9.70703C104.841 9.58464 104.604 9.52344 104.333 9.52344C104.044 9.52344 103.79 9.59375 103.571 9.73437C103.352 9.8724 103.182 10.0547 103.06 10.2812C102.94 10.5052 102.879 10.7513 102.876 11.0195V11.8516C102.876 12.2005 102.94 12.5 103.067 12.75C103.195 12.9974 103.373 13.1875 103.602 13.3203C103.832 13.4505 104.1 13.5156 104.407 13.5156C104.613 13.5156 104.799 13.487 104.966 13.4297C105.132 13.3698 105.277 13.2826 105.399 13.168C105.522 13.0534 105.614 12.9115 105.677 12.7422L106.997 12.8906C106.914 13.2396 106.755 13.5443 106.52 13.8047C106.289 14.0625 105.992 14.263 105.63 14.4062C105.268 14.5469 104.854 14.6172 104.388 14.6172Z" fill="white"/>
<g style="mix-blend-mode:multiply">
<rect x="30" width="1" height="20" fill="#E151FF"/>
</g>
<defs>
<linearGradient id="paint0_linear_249_152" x1="87" y1="-3.5" x2="87" y2="23" gradientUnits="userSpaceOnUse">
<stop stop-color="#DA51C7"/>
<stop offset="0.21875" stop-color="#B81FA8"/>
<stop offset="1" stop-color="#911D9F"/>
</linearGradient>
<clipPath id="clip0_249_152">
<rect width="18.3081" height="12" fill="white" transform="translate(6 4)"/>
</clipPath>
</defs>
</svg>
