<svg width="103" height="20" viewBox="0 0 103 20" fill="none" xmlns="http://www.w3.org/2000/svg">
<rect width="102.308" height="20" rx="4" fill="url(#paint0_linear_247_147)"/>
<g clip-path="url(#clip0_247_147)">
<path d="M23.0763 6.61468C22.5628 6.02019 21.9038 5.55751 21.1755 5.3302C20.775 4.5454 19.9653 4 19.0243 4C17.6882 4 16.6012 5.08609 16.6012 6.421C16.6012 7.75591 17.6876 8.84199 19.0243 8.84199C20.1423 8.84199 21.0766 8.07736 21.3546 7.04709C21.5652 7.18832 21.7685 7.36518 21.9563 7.5824C22.4759 8.18429 22.8273 9.02289 22.8273 9.95161C22.8273 11.7714 21.3505 13.2469 19.5291 13.2469C18.8009 13.2469 18.2301 13.1063 17.6862 12.6591C17.1114 12.1857 16.4955 11.3101 15.8419 9.67656C15.15 7.94757 14.419 6.80499 13.5635 6.10223C12.6771 5.37257 11.7341 5.17687 10.7789 5.17687C8.13976 5.17687 6 7.31475 6 9.95161C6 11.2516 6.49001 12.4304 7.23176 13.2886C7.96677 14.1393 8.99929 14.7264 10.1059 14.7264C10.3805 14.7264 10.6524 14.6934 10.9015 14.6504L11.3423 15.8252C11.4211 16.035 11.7071 16.0626 11.8243 15.8716L13.616 12.9543C13.7109 12.7996 13.6281 12.5972 13.4518 12.5528L10.2674 11.7566C10.0567 11.7041 9.87364 11.9093 9.9497 12.1117L10.367 13.2226C10.2788 13.2327 10.1893 13.2469 10.1059 13.2469C9.52969 13.2469 8.87948 12.9308 8.35245 12.3208C7.83215 11.7189 7.4808 10.8803 7.4808 9.95161C7.4808 8.13183 8.95756 6.65637 10.7789 6.65637C11.5066 6.65637 12.078 6.79692 12.6219 7.24413C13.1967 7.71757 13.8126 8.59317 14.4661 10.2267C15.1581 11.9557 15.8891 13.0982 16.7446 13.801C17.631 14.5307 18.5747 14.7264 19.5291 14.7264C22.169 14.7264 24.3081 12.5885 24.3081 9.95161C24.3081 8.65167 23.8181 7.47278 23.0763 6.61468ZM19.0243 7.36249C18.5054 7.36249 18.082 6.93949 18.082 6.421C18.082 5.9025 18.5054 5.4795 19.0243 5.4795C19.5433 5.4795 19.9666 5.9025 19.9666 6.421C19.9666 6.93949 19.5433 7.36249 19.0243 7.36249Z" fill="white"/>
</g>
<path d="M37.0971 14V6H40.0971C40.7117 6 41.2273 6.10677 41.644 6.32031C42.0633 6.53385 42.3797 6.83333 42.5932 7.21875C42.8094 7.60156 42.9175 8.04818 42.9175 8.55859C42.9175 9.07161 42.8081 9.51693 42.5893 9.89453C42.3732 10.2695 42.0542 10.5599 41.6323 10.7656C41.2104 10.9687 40.6922 11.0703 40.0776 11.0703H37.9409V9.86719H39.8823C40.2417 9.86719 40.5359 9.81771 40.7651 9.71875C40.9943 9.61719 41.1635 9.47005 41.2729 9.27734C41.3849 9.08203 41.4409 8.84245 41.4409 8.55859C41.4409 8.27474 41.3849 8.03255 41.2729 7.83203C41.1609 7.62891 40.9904 7.47526 40.7612 7.37109C40.532 7.26432 40.2365 7.21094 39.8745 7.21094H38.5464V14H37.0971ZM41.23 10.375L43.2104 14H41.5932L39.6479 10.375H41.23ZM46.9242 14.1172C46.3227 14.1172 45.8032 13.9922 45.3657 13.7422C44.9308 13.4896 44.5961 13.1328 44.3617 12.6719C44.1274 12.2083 44.0102 11.6628 44.0102 11.0352C44.0102 10.418 44.1274 9.8763 44.3617 9.41016C44.5987 8.94141 44.9295 8.57682 45.3539 8.31641C45.7784 8.05339 46.2771 7.92188 46.85 7.92188C47.2198 7.92188 47.5688 7.98177 47.8969 8.10156C48.2276 8.21875 48.5193 8.40104 48.7719 8.64844C49.0271 8.89583 49.2276 9.21094 49.3735 9.59375C49.5193 9.97396 49.5922 10.4271 49.5922 10.9531V11.3867H44.6742V10.4336H48.2367C48.2341 10.1628 48.1755 9.92187 48.061 9.71094C47.9464 9.4974 47.7862 9.32943 47.5805 9.20703C47.3774 9.08464 47.1404 9.02344 46.8696 9.02344C46.5805 9.02344 46.3266 9.09375 46.1078 9.23437C45.8891 9.3724 45.7185 9.55469 45.5961 9.78125C45.4763 10.0052 45.4151 10.2513 45.4125 10.5195V11.3516C45.4125 11.7005 45.4763 12 45.6039 12.25C45.7315 12.4974 45.9099 12.6875 46.1391 12.8203C46.3683 12.9505 46.6365 13.0156 46.9438 13.0156C47.1495 13.0156 47.3357 12.987 47.5024 12.9297C47.669 12.8698 47.8136 12.7826 47.936 12.668C48.0584 12.5534 48.1508 12.4115 48.2133 12.2422L49.5336 12.3906C49.4503 12.7396 49.2914 13.0443 49.0571 13.3047C48.8253 13.5625 48.5284 13.763 48.1664 13.9062C47.8045 14.0469 47.3904 14.1172 46.9242 14.1172ZM56.141 8L54.0043 14H52.4418L50.3051 8H51.8129L53.1918 12.457H53.2543L54.6371 8H56.141ZM57.2845 14V8H58.6986V14H57.2845ZM57.9955 7.14844C57.7715 7.14844 57.5788 7.07422 57.4173 6.92578C57.2559 6.77474 57.1751 6.59375 57.1751 6.38281C57.1751 6.16927 57.2559 5.98828 57.4173 5.83984C57.5788 5.6888 57.7715 5.61328 57.9955 5.61328C58.222 5.61328 58.4147 5.6888 58.5736 5.83984C58.735 5.98828 58.8158 6.16927 58.8158 6.38281C58.8158 6.59375 58.735 6.77474 58.5736 6.92578C58.4147 7.07422 58.222 7.14844 57.9955 7.14844ZM62.9739 14.1172C62.3724 14.1172 61.8528 13.9922 61.4153 13.7422C60.9804 13.4896 60.6458 13.1328 60.4114 12.6719C60.1771 12.2083 60.0599 11.6628 60.0599 11.0352C60.0599 10.418 60.1771 9.8763 60.4114 9.41016C60.6484 8.94141 60.9791 8.57682 61.4036 8.31641C61.8281 8.05339 62.3268 7.92188 62.8997 7.92188C63.2695 7.92188 63.6185 7.98177 63.9466 8.10156C64.2773 8.21875 64.569 8.40104 64.8216 8.64844C65.0768 8.89583 65.2773 9.21094 65.4232 9.59375C65.569 9.97396 65.6419 10.4271 65.6419 10.9531V11.3867H60.7239V10.4336H64.2864C64.2838 10.1628 64.2252 9.92187 64.1107 9.71094C63.9961 9.4974 63.8359 9.32943 63.6302 9.20703C63.4271 9.08464 63.1901 9.02344 62.9192 9.02344C62.6302 9.02344 62.3763 9.09375 62.1575 9.23437C61.9388 9.3724 61.7682 9.55469 61.6458 9.78125C61.526 10.0052 61.4648 10.2513 61.4622 10.5195V11.3516C61.4622 11.7005 61.526 12 61.6536 12.25C61.7812 12.4974 61.9596 12.6875 62.1888 12.8203C62.4179 12.9505 62.6862 13.0156 62.9935 13.0156C63.1992 13.0156 63.3854 12.987 63.5521 12.9297C63.7187 12.8698 63.8633 12.7826 63.9857 12.668C64.108 12.5534 64.2005 12.4115 64.263 12.2422L65.5833 12.3906C65.5 12.7396 65.3411 13.0443 65.1067 13.3047C64.875 13.5625 64.5781 13.763 64.2161 13.9062C63.8541 14.0469 63.4401 14.1172 62.9739 14.1172ZM68.2092 14L66.5139 8H67.9553L69.01 12.2187H69.0647L70.1428 8H71.5686L72.6467 12.1953H72.7053L73.7444 8H75.1897L73.4905 14H72.0178L70.8928 9.94531H70.8108L69.6858 14H68.2092ZM79.298 14V6H82.298C82.9126 6 83.4282 6.11458 83.8449 6.34375C84.2642 6.57292 84.5806 6.88802 84.7941 7.28906C85.0103 7.6875 85.1183 8.14062 85.1183 8.64844C85.1183 9.16146 85.0103 9.61719 84.7941 10.0156C84.578 10.4141 84.259 10.7279 83.8371 10.957C83.4152 11.1836 82.8957 11.2969 82.2785 11.2969H80.2902V10.1055H82.0832C82.4426 10.1055 82.7368 10.043 82.966 9.91797C83.1952 9.79297 83.3644 9.62109 83.4738 9.40234C83.5858 9.18359 83.6418 8.93229 83.6418 8.64844C83.6418 8.36458 83.5858 8.11458 83.4738 7.89844C83.3644 7.68229 83.1939 7.51432 82.9621 7.39453C82.7329 7.27214 82.4374 7.21094 82.0754 7.21094H80.7473V14H79.298ZM86.5421 14V6H89.5421C90.1567 6 90.6723 6.10677 91.089 6.32031C91.5083 6.53385 91.8247 6.83333 92.0382 7.21875C92.2544 7.60156 92.3625 8.04818 92.3625 8.55859C92.3625 9.07161 92.2531 9.51693 92.0343 9.89453C91.8182 10.2695 91.4992 10.5599 91.0773 10.7656C90.6554 10.9687 90.1372 11.0703 89.5226 11.0703H87.3859V9.86719H89.3273C89.6867 9.86719 89.9809 9.81771 90.2101 9.71875C90.4393 9.61719 90.6085 9.47005 90.7179 9.27734C90.8299 9.08203 90.8859 8.84245 90.8859 8.55859C90.8859 8.27474 90.8299 8.03255 90.7179 7.83203C90.6059 7.62891 90.4354 7.47526 90.2062 7.37109C89.977 7.26432 89.6815 7.21094 89.3195 7.21094H87.9914V14H86.5421ZM90.6749 10.375L92.6554 14H91.0382L89.0929 10.375H90.6749Z" fill="white"/>
<g style="mix-blend-mode:multiply">
<rect x="30" width="1" height="20" fill="#E151FF"/>
</g>
<defs>
<linearGradient id="paint0_linear_247_147" x1="76.5278" y1="-3.5" x2="76.5278" y2="23" gradientUnits="userSpaceOnUse">
<stop stop-color="#DA51C7"/>
<stop offset="0.21875" stop-color="#B81FA8"/>
<stop offset="1" stop-color="#911D9F"/>
</linearGradient>
<clipPath id="clip0_247_147">
<rect width="18.3081" height="12" fill="white" transform="translate(6 4)"/>
</clipPath>
</defs>
</svg>
