<svg xmlns="http://www.w3.org/2000/svg" width="149" height="20" fill="none"><rect width="148.308" height="20" fill="url(#a)" rx="4"/><g clip-path="url(#b)"><path fill="#fff" d="M23.076 6.615c-.513-.595-1.172-1.057-1.9-1.285A2.419 2.419 0 0 0 19.023 4a2.425 2.425 0 0 0-2.423 2.421 2.424 2.424 0 0 0 2.423 2.421 2.42 2.42 0 0 0 2.33-1.795c.211.141.415.318.602.535.52.602.871 1.44.871 2.37a3.297 3.297 0 0 1-3.298 3.295c-.728 0-1.299-.14-1.843-.588-.575-.473-1.19-1.349-1.844-2.982-.692-1.73-1.423-2.872-2.279-3.575-.886-.73-1.829-.925-2.784-.925A4.777 4.777 0 0 0 6 9.952c0 1.3.49 2.478 1.232 3.337.735.85 1.767 1.437 2.874 1.437.274 0 .546-.033.796-.076l.44 1.175a.27.27 0 0 0 .482.047l1.792-2.918a.27.27 0 0 0-.164-.401l-3.185-.796a.27.27 0 0 0-.317.355l.417 1.11c-.088.01-.178.025-.261.025-.576 0-1.227-.316-1.754-.926a3.642 3.642 0 0 1-.871-2.37 3.297 3.297 0 0 1 3.298-3.295c.728 0 1.299.14 1.843.588.575.474 1.19 1.35 1.844 2.983.692 1.729 1.423 2.871 2.279 3.574.886.73 1.83.925 2.784.925a4.777 4.777 0 0 0 4.78-4.774c0-1.3-.49-2.48-1.233-3.337Zm-4.052.747a.944.944 0 0 1-.942-.941c0-.519.423-.942.942-.942.52 0 .943.423.943.942a.944.944 0 0 1-.943.941Z"/></g><path fill="#fff" d="M41.445 8.7a1.067 1.067 0 0 0-.461-.798c-.268-.19-.617-.285-1.047-.285-.302 0-.561.046-.777.137a1.151 1.151 0 0 0-.496.371.903.903 0 0 0-.063.969c.078.122.184.226.316.312.133.084.28.154.442.211.161.057.324.106.488.145l.75.187c.302.07.593.166.871.285.281.12.533.271.754.454.224.182.401.402.531.66.13.257.196.56.196.906 0 .469-.12.881-.36 1.238-.24.354-.586.632-1.039.832-.45.198-.996.297-1.636.297-.623 0-1.163-.096-1.622-.289a2.414 2.414 0 0 1-1.07-.844c-.255-.37-.393-.82-.414-1.351h1.426c.02.278.107.51.258.695.15.185.347.323.59.414.244.091.518.137.82.137.315 0 .591-.047.828-.14.24-.097.427-.23.562-.4a.961.961 0 0 0 .207-.6.765.765 0 0 0-.183-.516 1.345 1.345 0 0 0-.504-.344 4.864 4.864 0 0 0-.75-.25l-.91-.235c-.659-.169-1.18-.425-1.563-.77-.38-.345-.57-.805-.57-1.378 0-.471.128-.884.383-1.238a2.53 2.53 0 0 1 1.05-.824 3.647 3.647 0 0 1 1.505-.297c.567 0 1.065.099 1.492.296.43.196.767.468 1.011.817.245.346.371.745.38 1.195h-1.395Zm5.515 5.917c-.586 0-1.093-.129-1.523-.387a2.627 2.627 0 0 1-1-1.082c-.234-.463-.352-1.005-.352-1.625 0-.62.118-1.162.352-1.628.237-.467.57-.829 1-1.086.43-.258.937-.387 1.523-.387.586 0 1.094.129 1.524.387.43.257.761.62.996 1.086.237.466.355 1.009.355 1.628 0 .62-.118 1.162-.355 1.625a2.6 2.6 0 0 1-.996 1.082c-.43.258-.938.387-1.524.387Zm.008-1.133c.318 0 .583-.087.797-.261.214-.177.373-.414.477-.711.106-.297.16-.628.16-.992 0-.368-.054-.7-.16-.997a1.576 1.576 0 0 0-.477-.714c-.214-.177-.48-.266-.797-.266-.325 0-.596.089-.812.266a1.605 1.605 0 0 0-.48.714 2.996 2.996 0 0 0-.157.997c0 .364.052.695.156.992.107.297.267.534.48.71.217.175.488.262.813.262ZM52.615 6.5v8H51.2v-8h1.414Zm6.978 2-2.137 6h-1.562l-2.137-6h1.508l1.379 4.457h.062L58.09 8.5h1.504Zm3.596 6.117c-.602 0-1.121-.125-1.559-.375a2.54 2.54 0 0 1-1.004-1.07c-.234-.464-.351-1.01-.351-1.637 0-.617.117-1.159.351-1.625.237-.469.568-.833.992-1.094.425-.263.924-.394 1.497-.394.37 0 .718.06 1.046.18.331.117.623.299.875.546.256.248.456.563.602.946.146.38.219.833.219 1.36v.433h-4.918v-.953H64.5a1.521 1.521 0 0 0-.175-.723 1.278 1.278 0 0 0-.481-.504 1.35 1.35 0 0 0-.71-.184c-.29 0-.544.07-.763.211-.218.138-.389.32-.511.547-.12.224-.181.47-.184.739v.832c0 .348.064.648.191.898.128.247.306.438.536.57.229.13.497.196.804.196.206 0 .392-.029.559-.086a1.24 1.24 0 0 0 .434-.262 1.09 1.09 0 0 0 .277-.426l1.32.149a2.059 2.059 0 0 1-.476.914 2.324 2.324 0 0 1-.891.601c-.362.14-.776.211-1.242.211Zm6.923-.117v-6h1.414v6h-1.414Zm.71-6.852a.825.825 0 0 1-.578-.222.718.718 0 0 1-.242-.543.71.71 0 0 1 .242-.543.817.817 0 0 1 .579-.227c.226 0 .419.076.578.227a.71.71 0 0 1 .242.543c0 .21-.08.392-.242.543a.816.816 0 0 1-.578.222Zm3.737 3.336V14.5h-1.414v-6h1.351v1.02h.07c.139-.336.359-.603.66-.801.305-.198.682-.297 1.13-.297.414 0 .774.088 1.082.265.31.178.55.434.718.77.172.336.257.743.254 1.223v3.82h-1.414v-3.602c0-.4-.104-.714-.312-.941-.206-.227-.491-.34-.856-.34-.247 0-.467.055-.66.164-.19.107-.34.262-.45.465a1.57 1.57 0 0 0-.16.738ZM89.817 9.2h-1.461a1.819 1.819 0 0 0-.23-.636 1.712 1.712 0 0 0-.99-.77 2.225 2.225 0 0 0-.683-.102c-.435 0-.82.11-1.156.329-.336.216-.599.533-.79.953-.19.416-.284.925-.284 1.527 0 .612.095 1.128.285 1.547.193.416.456.732.789.945.336.211.72.317 1.152.317.24 0 .464-.032.672-.094.211-.065.4-.16.567-.285a1.74 1.74 0 0 0 .668-1.086l1.46.008c-.054.38-.173.736-.355 1.07-.18.333-.415.627-.707.883a3.26 3.26 0 0 1-1.023.593c-.391.141-.825.211-1.301.211-.703 0-1.33-.162-1.883-.488-.552-.325-.987-.796-1.305-1.41-.317-.615-.476-1.352-.476-2.211 0-.862.16-1.599.48-2.21.32-.616.757-1.086 1.309-1.411.552-.326 1.177-.488 1.875-.488.445 0 .86.062 1.242.187.383.125.724.309 1.023.55.3.24.546.535.739.884.195.346.323.742.383 1.187Zm4.046 5.418c-.586 0-1.093-.129-1.523-.387a2.626 2.626 0 0 1-1-1.082c-.234-.463-.352-1.005-.352-1.625 0-.62.118-1.162.352-1.628a2.62 2.62 0 0 1 1-1.086c.43-.258.937-.387 1.523-.387.586 0 1.094.129 1.524.387.43.257.761.62.996 1.086.237.466.355 1.009.355 1.628 0 .62-.118 1.162-.355 1.625a2.6 2.6 0 0 1-.996 1.082c-.43.258-.938.387-1.524.387Zm.008-1.133c.318 0 .584-.087.797-.261.214-.177.372-.414.477-.711.106-.297.16-.628.16-.992 0-.368-.054-.7-.16-.997a1.576 1.576 0 0 0-.477-.714c-.214-.177-.48-.266-.797-.266-.325 0-.596.089-.812.266a1.604 1.604 0 0 0-.48.714 2.994 2.994 0 0 0-.157.997c0 .364.052.695.156.992.107.297.267.534.48.71.217.175.488.262.813.262Zm6.459 1.121a2.27 2.27 0 0 1-1.266-.363c-.372-.242-.666-.594-.882-1.055-.216-.46-.325-1.02-.325-1.68 0-.666.11-1.228.329-1.687.22-.46.52-.808.894-1.043a2.299 2.299 0 0 1 1.254-.355c.352 0 .641.06.867.18.227.117.406.259.539.425.133.164.236.32.309.465h.058V6.5h1.418v8h-1.39v-.945h-.086c-.073.146-.179.3-.317.465-.138.161-.32.299-.546.414-.227.114-.512.171-.856.171Zm.395-1.16c.299 0 .554-.08.765-.242.211-.164.371-.392.481-.683.109-.292.164-.632.164-1.02a2.84 2.84 0 0 0-.164-1.012 1.442 1.442 0 0 0-.477-.668 1.231 1.231 0 0 0-.769-.238c-.315 0-.578.082-.79.246a1.49 1.49 0 0 0-.476.68c-.107.289-.16.62-.16.992 0 .375.053.71.16 1.004.11.292.27.522.48.691.214.167.476.25.786.25Zm7.129 1.172c-.602 0-1.122-.125-1.559-.375a2.537 2.537 0 0 1-1.004-1.07c-.234-.464-.352-1.01-.352-1.637 0-.617.118-1.159.352-1.625.237-.469.568-.833.992-1.094.425-.263.923-.394 1.496-.394.37 0 .719.06 1.047.18.331.117.623.299.875.546.255.248.456.563.602.946.146.38.218.833.218 1.36v.433h-4.917v-.953h3.562a1.521 1.521 0 0 0-.176-.723 1.278 1.278 0 0 0-.48-.504 1.35 1.35 0 0 0-.711-.184c-.289 0-.543.07-.762.211-.219.138-.389.32-.512.547-.119.224-.181.47-.183.739v.832c0 .348.064.648.191.898.128.247.306.438.535.57.23.13.498.196.805.196.206 0 .392-.029.559-.086a1.24 1.24 0 0 0 .433-.262 1.09 1.09 0 0 0 .278-.426l1.32.149a2.05 2.05 0 0 1-.477.914 2.315 2.315 0 0 1-.89.601 3.41 3.41 0 0 1-1.242.211Zm7.068-6.117v1.094h-3.547V8.5h3.547Zm-2.66 6V7.934c0-.404.083-.74.25-1.008.169-.268.395-.469.679-.602.284-.133.599-.199.946-.199.244 0 .462.02.652.059.19.039.331.074.422.105l-.281 1.094a2.48 2.48 0 0 0-.227-.055 1.372 1.372 0 0 0-.305-.031c-.263 0-.449.064-.558.191-.107.125-.16.305-.16.54V14.5h-1.418Zm5.346-8v8h-1.414v-8h1.414Zm4.237 8.117c-.586 0-1.094-.129-1.524-.387a2.624 2.624 0 0 1-1-1.082c-.234-.463-.351-1.005-.351-1.625 0-.62.117-1.162.351-1.628.237-.467.57-.829 1-1.086.43-.258.938-.387 1.524-.387.586 0 1.093.129 1.523.387.43.257.762.62.996 1.086.237.466.356 1.009.356 1.628 0 .62-.119 1.162-.356 1.625a2.595 2.595 0 0 1-.996 1.082c-.43.258-.937.387-1.523.387Zm.007-1.133c.318 0 .584-.087.797-.261.214-.177.373-.414.477-.711a2.91 2.91 0 0 0 .16-.992c0-.368-.053-.7-.16-.997a1.572 1.572 0 0 0-.477-.714c-.213-.177-.479-.266-.797-.266-.325 0-.596.089-.812.266a1.603 1.603 0 0 0-.481.714 2.999 2.999 0 0 0-.156.997c0 .364.052.695.156.992.107.297.267.534.481.71.216.175.487.262.812.262Zm5.299 1.016-1.695-6h1.441l1.055 4.219h.055l1.078-4.219h1.426l1.078 4.195h.058l1.039-4.195h1.446l-1.7 6h-1.472l-1.125-4.055h-.082l-1.125 4.055h-1.477Z"/><path fill="#E151FF" d="M30 0h1v20h-1z" style="mix-blend-mode:multiply"/><defs><linearGradient id="a" x1="110.936" x2="110.936" y1="-3.5" y2="23" gradientUnits="userSpaceOnUse"><stop stop-color="#DA51C7"/><stop offset=".219" stop-color="#B81FA8"/><stop offset="1" stop-color="#911D9F"/></linearGradient><clipPath id="b"><path fill="#fff" d="M6 4h18.308v12H6z"/></clipPath></defs></svg>