<svg xmlns="http://www.w3.org/2000/svg" viewBox="0 0 116 16.153">
<g>
	<path d="M43.51,8.188c0,2.783-2.066,4.919-4.778,4.919h-4.005V3.27h4.005C41.444,3.27,43.51,5.406,43.51,8.188z M41.05,8.188
		c0-1.503-0.97-2.487-2.319-2.487h-1.419v4.974h1.419C40.081,10.675,41.05,9.692,41.05,8.188z M51.731,10.747v2.361h-6.324V3.27
		h6.254v2.347h-3.738V6.98h3.387v2.318h-3.387v1.448H51.731z M52.884,3.27h2.754l1.911,6.774l1.925-6.774h2.755l-3.177,9.838H56.06
		L52.884,3.27z M70.058,10.747v2.361h-6.324V3.27h6.254v2.347h-3.738V6.98h3.387v2.318h-3.387v1.448H70.058z M77.886,10.675v2.433
		h-5.902V3.27h2.515v7.406H77.886z M78.659,8.188c0-2.895,2.29-5.129,5.157-5.129s5.158,2.234,5.158,5.129s-2.291,5.129-5.158,5.129
		S78.659,11.083,78.659,8.188z M86.473,8.188c0-1.574-1.152-2.67-2.656-2.67s-2.656,1.096-2.656,2.67s1.152,2.67,2.656,2.67
		S86.473,9.762,86.473,8.188z M98.208,6.713c0,2.023-1.546,3.443-3.514,3.443h-1.307v2.952h-2.516V3.27h3.822
		C96.662,3.27,98.208,4.689,98.208,6.713z M95.692,6.713c0-0.619-0.436-1.04-0.998-1.04h-1.307v2.094h1.307
		C95.257,7.767,95.692,7.331,95.692,6.713z M106.247,10.747v2.361h-6.324V3.27h6.254v2.347h-3.738V6.98h3.387v2.318h-3.387v1.448
		H106.247z M111.587,9.931h-0.899v3.177h-2.516V3.27h3.936c1.995,0,3.541,1.42,3.541,3.401c0,1.208-0.66,2.234-1.673,2.796
		L116,13.108h-2.698L111.587,9.931z M110.688,7.795h1.392c0.618,0.014,1.054-0.436,1.054-1.096c0-0.646-0.436-1.11-1.054-1.11
		h-1.392V7.795z"/>
	<path fill="#00B3FF" d="M0,4.948C0,3.859,0.919,2.94,2.007,2.94c1.088,0,2.007,0.919,2.007,2.008c0,1.088-0.919,2.008-2.007,2.008
		C0.919,6.956,0,6.036,0,4.948z"/>
	<path fill="#00B3FF" d="M0,11.489c0-1.088,0.919-2.007,2.007-2.007c1.088,0,2.007,0.919,2.007,2.007
		c0,1.089-0.919,2.008-2.007,2.008C0.919,13.497,0,12.578,0,11.489z M9.283,9.821l7.061-7.649L17.071,0h-4.73L6.927,16.153h4.729
		l2.123-6.332H9.283z M20.363,0L18.24,6.333h4.447l-6.983,7.565l-0.755,2.254h4.73L25.093,0H20.363z"/>
</g>
</svg>
