<svg xmlns="http://www.w3.org/2000/svg" viewBox="0 0 116 16.152">
<g>
	<path fill="#FFFFFF" d="M43.51,8.188c0,2.782-2.065,4.919-4.778,4.919h-4.005V3.27h4.005C41.445,3.27,43.51,5.406,43.51,8.188z
		 M41.051,8.188c0-1.503-0.97-2.487-2.319-2.487h-1.419v4.975h1.419C40.082,10.676,41.051,9.692,41.051,8.188z M51.732,10.746v2.361
		h-6.324V3.27h6.253v2.347h-3.738V6.98h3.387v2.319h-3.387v1.447H51.732z M52.885,3.27h2.754l1.911,6.773l1.925-6.773h2.755
		l-3.176,9.838h-2.994L52.885,3.27z M70.059,10.746v2.361h-6.324V3.27h6.254v2.347H66.25V6.98h3.387v2.319H66.25v1.447H70.059z
		 M77.887,10.676v2.432h-5.903V3.27H74.5v7.406H77.887z M78.659,8.188c0-2.895,2.291-5.129,5.158-5.129
		c2.866,0,5.157,2.234,5.157,5.129c0,2.895-2.291,5.13-5.157,5.13C80.95,13.318,78.659,11.083,78.659,8.188z M86.474,8.188
		c0-1.574-1.152-2.67-2.656-2.67s-2.656,1.096-2.656,2.67c0,1.574,1.152,2.67,2.656,2.67S86.474,9.763,86.474,8.188z M98.208,6.713
		c0,2.023-1.546,3.443-3.514,3.443h-1.307v2.951h-2.516V3.27h3.822C96.662,3.27,98.208,4.689,98.208,6.713z M95.692,6.713
		c0-0.619-0.436-1.04-0.998-1.04h-1.307v2.094h1.307C95.257,7.767,95.692,7.331,95.692,6.713z M106.247,10.746v2.361h-6.324V3.27
		h6.254v2.347h-3.738V6.98h3.387v2.319h-3.387v1.447H106.247z M111.588,9.932h-0.899v3.176h-2.516V3.27h3.935
		c1.996,0,3.542,1.42,3.542,3.401c0,1.208-0.661,2.234-1.673,2.797l2.023,3.64h-2.698L111.588,9.932z M110.688,7.795h1.391
		c0.619,0.014,1.055-0.436,1.055-1.096c0-0.646-0.436-1.11-1.055-1.11h-1.391V7.795z"/>
	<path fill="#00B3FF" d="M0,4.948C0,3.859,0.92,2.94,2.008,2.94c1.088,0,2.007,0.919,2.007,2.008c0,1.088-0.919,2.008-2.007,2.008
		C0.92,6.956,0,6.036,0,4.948z M2.008,13.497c1.088,0,2.007-0.92,2.007-2.008c0-1.089-0.919-2.007-2.007-2.007
		C0.92,9.482,0,10.4,0,11.489C0,12.577,0.92,13.497,2.008,13.497z M9.284,9.82l7.061-7.649L17.073,0h-4.73L6.928,16.152h4.73
		l2.123-6.332H9.284z M20.363,0L18.24,6.333h4.448l-6.984,7.565l-0.756,2.254h4.73L25.093,0H20.363z"/>
</g>
</svg>
