<svg width="117" height="20" viewBox="0 0 117 20" fill="none" xmlns="http://www.w3.org/2000/svg">
<rect width="116.308" height="20" rx="4" fill="url(#paint0_linear_228_131)"/>
<g clip-path="url(#clip0_228_131)">
<path d="M23.0763 6.61468C22.5628 6.02019 21.9038 5.55751 21.1755 5.3302C20.775 4.5454 19.9653 4 19.0243 4C17.6882 4 16.6012 5.08609 16.6012 6.421C16.6012 7.75591 17.6876 8.84199 19.0243 8.84199C20.1423 8.84199 21.0766 8.07736 21.3546 7.04709C21.5652 7.18832 21.7685 7.36518 21.9563 7.5824C22.4759 8.18429 22.8273 9.02289 22.8273 9.95161C22.8273 11.7714 21.3505 13.2469 19.5291 13.2469C18.8009 13.2469 18.2301 13.1063 17.6862 12.6591C17.1114 12.1857 16.4955 11.3101 15.8419 9.67656C15.15 7.94757 14.419 6.80499 13.5635 6.10223C12.6771 5.37257 11.7341 5.17687 10.7789 5.17687C8.13976 5.17687 6 7.31475 6 9.95161C6 11.2516 6.49001 12.4304 7.23176 13.2886C7.96677 14.1393 8.99929 14.7264 10.1059 14.7264C10.3805 14.7264 10.6524 14.6934 10.9015 14.6504L11.3423 15.8252C11.4211 16.035 11.7071 16.0626 11.8243 15.8716L13.616 12.9543C13.7109 12.7996 13.6281 12.5972 13.4518 12.5528L10.2674 11.7566C10.0567 11.7041 9.87364 11.9093 9.9497 12.1117L10.367 13.2226C10.2788 13.2327 10.1893 13.2469 10.1059 13.2469C9.52969 13.2469 8.87948 12.9308 8.35245 12.3208C7.83215 11.7189 7.4808 10.8803 7.4808 9.95161C7.4808 8.13183 8.95756 6.65637 10.7789 6.65637C11.5066 6.65637 12.078 6.79692 12.6219 7.24413C13.1967 7.71757 13.8126 8.59317 14.4661 10.2267C15.1581 11.9557 15.8891 13.0982 16.7446 13.801C17.631 14.5307 18.5747 14.7264 19.5291 14.7264C22.169 14.7264 24.3081 12.5885 24.3081 9.95161C24.3081 8.65167 23.8181 7.47278 23.0763 6.61468ZM19.0243 7.36249C18.5054 7.36249 18.082 6.93949 18.082 6.421C18.082 5.9025 18.5054 5.4795 19.0243 5.4795C19.5433 5.4795 19.9666 5.9025 19.9666 6.421C19.9666 6.93949 19.5433 7.36249 19.0243 7.36249Z" fill="white"/>
</g>
<path d="M41.4448 8.19922C41.4084 7.85807 41.2547 7.59245 40.9839 7.40234C40.7157 7.21224 40.3667 7.11719 39.937 7.11719C39.6349 7.11719 39.3758 7.16276 39.1597 7.25391C38.9435 7.34505 38.7782 7.46875 38.6636 7.625C38.549 7.78125 38.4904 7.95964 38.4878 8.16016C38.4878 8.32682 38.5256 8.47135 38.6011 8.59375C38.6792 8.71615 38.7847 8.82031 38.9175 8.90625C39.0503 8.98958 39.1974 9.0599 39.3589 9.11719C39.5203 9.17448 39.6831 9.22266 39.8472 9.26172L40.5972 9.44922C40.8993 9.51953 41.1896 9.61458 41.4683 9.73437C41.7495 9.85417 42.0008 10.0052 42.2222 10.1875C42.4461 10.3698 42.6232 10.5898 42.7534 10.8477C42.8836 11.1055 42.9487 11.4076 42.9487 11.7539C42.9487 12.2227 42.8289 12.6354 42.5894 12.9922C42.3498 13.3464 42.0034 13.6237 41.5503 13.8242C41.0998 14.0221 40.5542 14.1211 39.9136 14.1211C39.2912 14.1211 38.7508 14.0247 38.2925 13.832C37.8368 13.6393 37.48 13.3581 37.2222 12.9883C36.967 12.6185 36.8289 12.168 36.8081 11.6367H38.2339C38.2547 11.9154 38.3407 12.1471 38.4917 12.332C38.6427 12.5169 38.8394 12.6549 39.0815 12.7461C39.3263 12.8372 39.5998 12.8828 39.9019 12.8828C40.217 12.8828 40.493 12.8359 40.73 12.7422C40.9696 12.6458 41.1571 12.513 41.2925 12.3437C41.4279 12.1719 41.4969 11.9714 41.4995 11.7422C41.4969 11.5339 41.4357 11.362 41.3159 11.2266C41.1961 11.0885 41.0282 10.974 40.812 10.8828C40.5985 10.7891 40.3485 10.7057 40.062 10.6328L39.1519 10.3984C38.493 10.2292 37.9722 9.97266 37.5894 9.62891C37.2091 9.28255 37.019 8.82292 37.019 8.25C37.019 7.77865 37.1466 7.36589 37.4019 7.01172C37.6597 6.65755 38.0099 6.38281 38.4526 6.1875C38.8953 5.98958 39.3966 5.89062 39.9565 5.89062C40.5243 5.89062 41.0216 5.98958 41.4487 6.1875C41.8784 6.38281 42.2157 6.65495 42.4604 7.00391C42.7052 7.35026 42.8315 7.7487 42.8394 8.19922H41.4448ZM47.3393 8V9.09375H43.8901V8H47.3393ZM44.7417 6.5625H46.1557V12.1953C46.1557 12.3854 46.1844 12.5313 46.2417 12.6328C46.3016 12.7318 46.3797 12.7995 46.476 12.8359C46.5724 12.8724 46.6792 12.8906 46.7963 12.8906C46.8849 12.8906 46.9656 12.8841 47.0385 12.8711C47.1141 12.8581 47.1713 12.8464 47.2104 12.8359L47.4487 13.9414C47.3732 13.9674 47.2651 13.9961 47.1245 14.0273C46.9865 14.0586 46.8172 14.0768 46.6167 14.082C46.2625 14.0924 45.9435 14.0391 45.6596 13.9219C45.3758 13.8021 45.1505 13.6172 44.9838 13.3672C44.8198 13.1172 44.7391 12.8047 44.7417 12.4297V6.5625ZM50.4135 14.1211C50.0333 14.1211 49.6908 14.0534 49.3862 13.918C49.0841 13.7799 48.8445 13.5768 48.6674 13.3086C48.4929 13.0404 48.4057 12.7096 48.4057 12.3164C48.4057 11.9779 48.4682 11.6979 48.5932 11.4766C48.7182 11.2552 48.8888 11.0781 49.1049 10.9453C49.321 10.8125 49.5645 10.7122 49.8354 10.6445C50.1088 10.5742 50.3914 10.5234 50.683 10.4922C51.0346 10.4557 51.3197 10.4232 51.5385 10.3945C51.7572 10.3633 51.9161 10.3164 52.0151 10.2539C52.1166 10.1888 52.1674 10.0885 52.1674 9.95312V9.92969C52.1674 9.63542 52.0802 9.40755 51.9057 9.24609C51.7312 9.08464 51.4799 9.00391 51.1518 9.00391C50.8054 9.00391 50.5307 9.07943 50.3276 9.23047C50.127 9.38151 49.9916 9.5599 49.9213 9.76562L48.601 9.57812C48.7052 9.21354 48.877 8.90885 49.1166 8.66406C49.3562 8.41667 49.6492 8.23177 49.9955 8.10937C50.3419 7.98438 50.7247 7.92188 51.144 7.92188C51.433 7.92188 51.7208 7.95573 52.0072 8.02344C52.2937 8.09115 52.5554 8.20312 52.7924 8.35937C53.0294 8.51302 53.2195 8.72266 53.3627 8.98828C53.5085 9.25391 53.5815 9.58594 53.5815 9.98437V14H52.2221V13.1758H52.1752C52.0893 13.3424 51.9682 13.4987 51.8119 13.6445C51.6583 13.7878 51.4643 13.9036 51.2299 13.9922C50.9981 14.0781 50.726 14.1211 50.4135 14.1211ZM50.7807 13.082C51.0645 13.082 51.3106 13.026 51.519 12.9141C51.7273 12.7995 51.8875 12.6484 51.9994 12.4609C52.114 12.2734 52.1713 12.069 52.1713 11.8477V11.1406C52.127 11.1771 52.0515 11.2109 51.9447 11.2422C51.8406 11.2734 51.7234 11.3008 51.5932 11.3242C51.463 11.3477 51.3341 11.3685 51.2065 11.3867C51.0789 11.4049 50.9682 11.4206 50.8744 11.4336C50.6635 11.4622 50.4747 11.5091 50.308 11.5742C50.1414 11.6393 50.0099 11.7305 49.9135 11.8477C49.8171 11.9622 49.769 12.1107 49.769 12.293C49.769 12.5534 49.864 12.75 50.0541 12.8828C50.2442 13.0156 50.4864 13.082 50.7807 13.082ZM55.1683 14V8H56.5394V9H56.6019C56.7113 8.65365 56.8988 8.38672 57.1644 8.19922C57.4327 8.00911 57.7387 7.91406 58.0824 7.91406C58.1605 7.91406 58.2478 7.91797 58.3441 7.92578C58.4431 7.93099 58.5251 7.9401 58.5902 7.95312V9.25391C58.5303 9.23307 58.4353 9.21484 58.3051 9.19922C58.1775 9.18099 58.0538 9.17187 57.934 9.17187C57.6762 9.17187 57.4444 9.22786 57.2387 9.33984C57.0355 9.44922 56.8754 9.60156 56.7582 9.79687C56.641 9.99219 56.5824 10.2174 56.5824 10.4727V14H55.1683ZM63.013 8V9.09375H59.5638V8H63.013ZM60.4154 6.5625H61.8294V12.1953C61.8294 12.3854 61.8581 12.5313 61.9154 12.6328C61.9753 12.7318 62.0534 12.7995 62.1497 12.8359C62.2461 12.8724 62.3529 12.8906 62.4701 12.8906C62.5586 12.8906 62.6393 12.8841 62.7122 12.8711C62.7878 12.8581 62.8451 12.8464 62.8841 12.8359L63.1224 13.9414C63.0469 13.9674 62.9388 13.9961 62.7982 14.0273C62.6602 14.0586 62.4909 14.0768 62.2904 14.082C61.9362 14.0924 61.6172 14.0391 61.3333 13.9219C61.0495 13.8021 60.8242 13.6172 60.6576 13.3672C60.4935 13.1172 60.4128 12.8047 60.4154 12.4297V6.5625ZM73.8909 6V14H72.6018L68.8323 8.55078H68.7659V14H67.3167V6H68.6135L72.3792 11.4531H72.4495V6H73.8909ZM78.2287 14.1172C77.6272 14.1172 77.1076 13.9922 76.6701 13.7422C76.2352 13.4896 75.9006 13.1328 75.6662 12.6719C75.4319 12.2083 75.3147 11.6628 75.3147 11.0352C75.3147 10.418 75.4319 9.8763 75.6662 9.41016C75.9032 8.94141 76.2339 8.57682 76.6584 8.31641C77.0829 8.05339 77.5816 7.92188 78.1545 7.92188C78.5243 7.92188 78.8733 7.98177 79.2014 8.10156C79.5321 8.21875 79.8238 8.40104 80.0764 8.64844C80.3316 8.89583 80.5321 9.21094 80.6779 9.59375C80.8238 9.97396 80.8967 10.4271 80.8967 10.9531V11.3867H75.9787V10.4336H79.5412C79.5386 10.1628 79.48 9.92187 79.3654 9.71094C79.2509 9.4974 79.0907 9.32943 78.885 9.20703C78.6819 9.08464 78.4449 9.02344 78.174 9.02344C77.885 9.02344 77.6311 9.09375 77.4123 9.23437C77.1936 9.3724 77.023 9.55469 76.9006 9.78125C76.7808 10.0052 76.7196 10.2513 76.717 10.5195V11.3516C76.717 11.7005 76.7808 12 76.9084 12.25C77.036 12.4974 77.2144 12.6875 77.4436 12.8203C77.6727 12.9505 77.941 13.0156 78.2483 13.0156C78.454 13.0156 78.6402 12.987 78.8069 12.9297C78.9735 12.8698 79.1181 12.7826 79.2404 12.668C79.3628 12.5534 79.4553 12.4115 79.5178 12.2422L80.8381 12.3906C80.7548 12.7396 80.5959 13.0443 80.3615 13.3047C80.1298 13.5625 79.8329 13.763 79.4709 13.9062C79.1089 14.0469 78.6949 14.1172 78.2287 14.1172ZM83.464 14L81.7687 8H83.2101L84.2648 12.2187H84.3195L85.3976 8H86.8234L87.9015 12.1953H87.9601L88.9992 8H90.4445L88.7453 14H87.2726L86.1476 9.94531H86.0656L84.9406 14H83.464ZM94.5528 14V6H97.5528C98.1674 6 98.683 6.11458 99.0997 6.34375C99.519 6.57292 99.8354 6.88802 100.049 7.28906C100.265 7.6875 100.373 8.14062 100.373 8.64844C100.373 9.16146 100.265 9.61719 100.049 10.0156C99.8328 10.4141 99.5138 10.7279 99.0919 10.957C98.67 11.1836 98.1505 11.2969 97.5333 11.2969H95.545V10.1055H97.338C97.6974 10.1055 97.9916 10.043 98.2208 9.91797C98.45 9.79297 98.6192 9.62109 98.7286 9.40234C98.8406 9.18359 98.8966 8.93229 98.8966 8.64844C98.8966 8.36458 98.8406 8.11458 98.7286 7.89844C98.6192 7.68229 98.4487 7.51432 98.2169 7.39453C97.9877 7.27214 97.6922 7.21094 97.3302 7.21094H96.0021V14H94.5528ZM101.797 14V6H104.797C105.412 6 105.927 6.10677 106.344 6.32031C106.763 6.53385 107.079 6.83333 107.293 7.21875C107.509 7.60156 107.617 8.04818 107.617 8.55859C107.617 9.07161 107.508 9.51693 107.289 9.89453C107.073 10.2695 106.754 10.5599 106.332 10.7656C105.91 10.9687 105.392 11.0703 104.777 11.0703H102.641V9.86719H104.582C104.941 9.86719 105.236 9.81771 105.465 9.71875C105.694 9.61719 105.863 9.47005 105.973 9.27734C106.085 9.08203 106.141 8.84245 106.141 8.55859C106.141 8.27474 106.085 8.03255 105.973 7.83203C105.861 7.62891 105.69 7.47526 105.461 7.37109C105.232 7.26432 104.936 7.21094 104.574 7.21094H103.246V14H101.797ZM105.93 10.375L107.91 14H106.293L104.348 10.375H105.93Z" fill="white"/>
<g style="mix-blend-mode:multiply">
<rect x="30" width="1" height="20" fill="#E151FF"/>
</g>
<defs>
<linearGradient id="paint0_linear_228_131" x1="87" y1="7.12865e-06" x2="87" y2="20" gradientUnits="userSpaceOnUse">
<stop stop-color="#DA51C7"/>
<stop offset="0.21875" stop-color="#B81FA8"/>
<stop offset="1" stop-color="#911D9F"/>
</linearGradient>
<clipPath id="clip0_228_131">
<rect width="18.3081" height="12" fill="white" transform="translate(6 4)"/>
</clipPath>
</defs>
</svg>
