<svg width="140" height="32" viewBox="0 0 140 32" fill="none" xmlns="http://www.w3.org/2000/svg">
<rect width="139.359" height="32" rx="4" fill="url(#paint0_linear_224_77)"/>
<g clip-path="url(#clip0_224_77)">
<path d="M27.9224 12.0505C27.3232 11.3569 26.5544 10.8171 25.7048 10.5519C25.2375 9.6363 24.2929 9 23.195 9C21.6363 9 20.3681 10.2671 20.3681 11.8245C20.3681 13.3819 21.6355 14.649 23.195 14.649C24.4994 14.649 25.5893 13.7569 25.9137 12.5549C26.1594 12.7197 26.3966 12.926 26.6157 13.1795C27.2219 13.8817 27.6318 14.86 27.6318 15.9436C27.6318 18.0666 25.9089 19.788 23.784 19.788C22.9343 19.788 22.2684 19.624 21.6339 19.1023C20.9633 18.5499 20.2448 17.5284 19.4823 15.6227C18.675 13.6055 17.8222 12.2725 16.8241 11.4526C15.7899 10.6013 14.6897 10.373 13.5754 10.373C10.4964 10.373 8 12.8672 8 15.9436C8 17.4601 8.57168 18.8355 9.43705 19.8366C10.2946 20.8291 11.4992 21.5141 12.7902 21.5141C13.1106 21.5141 13.4278 21.4756 13.7184 21.4254L14.2327 22.7961C14.3246 23.0409 14.6583 23.073 14.795 22.8502L16.8854 19.4467C16.9961 19.2663 16.8995 19.0301 16.6938 18.9783L12.9786 18.0494C12.7328 17.9882 12.5192 18.2275 12.608 18.4636L13.0949 19.7598C12.992 19.7715 12.8875 19.788 12.7902 19.788C12.118 19.788 11.3594 19.4192 10.7445 18.7076C10.1375 18.0054 9.7276 17.0271 9.7276 15.9436C9.7276 13.8205 11.4505 12.0991 13.5754 12.0991C14.4243 12.0991 15.091 12.2631 15.7255 12.7848C16.3961 13.3372 17.1147 14.3587 17.8772 16.2644C18.6844 18.2816 19.5372 19.6146 20.5353 20.4345C21.5695 21.2858 22.6705 21.5141 23.784 21.5141C26.8638 21.5141 29.3594 19.0199 29.3594 15.9436C29.3594 14.427 28.7878 13.0516 27.9224 12.0505ZM23.195 12.9229C22.5896 12.9229 22.0957 12.4294 22.0957 11.8245C22.0957 11.2196 22.5896 10.7261 23.195 10.7261C23.8005 10.7261 24.2944 11.2196 24.2944 11.8245C24.2944 12.4294 23.8005 12.9229 23.195 12.9229Z" fill="white"/>
</g>
<path d="M54.1735 13.9581C54.1273 13.548 53.9367 13.2303 53.6016 13.005C53.2666 12.7768 52.8449 12.6627 52.3366 12.6627C51.9726 12.6627 51.6578 12.7205 51.3921 12.836C51.1264 12.9487 50.9199 13.1046 50.7726 13.3039C50.6282 13.5003 50.556 13.7241 50.556 13.9754C50.556 14.1863 50.6051 14.3682 50.7033 14.5213C50.8043 14.6744 50.9358 14.8029 51.0975 14.9069C51.2621 15.008 51.4383 15.0932 51.6261 15.1625C51.8138 15.2289 51.9943 15.2838 52.1676 15.3271L53.0341 15.5524C53.3171 15.6217 53.6074 15.7156 53.9049 15.834C54.2024 15.9524 54.4782 16.1084 54.7324 16.3019C54.9865 16.4954 55.1916 16.7352 55.3476 17.0211C55.5064 17.307 55.5859 17.6493 55.5859 18.0479C55.5859 18.5504 55.4559 18.9967 55.1959 19.3866C54.9389 19.7765 54.5649 20.0841 54.0739 20.3094C53.5857 20.5347 52.9951 20.6473 52.3019 20.6473C51.6376 20.6473 51.0628 20.5419 50.5776 20.331C50.0924 20.1202 49.7126 19.8213 49.4382 19.4342C49.1638 19.0443 49.0122 18.5822 48.9833 18.0479H50.3263C50.3523 18.3685 50.4563 18.6356 50.6383 18.8494C50.8231 19.0602 51.0585 19.2176 51.3445 19.3216C51.6333 19.4227 51.9495 19.4732 52.2932 19.4732C52.6716 19.4732 53.0081 19.414 53.3027 19.2956C53.6002 19.1743 53.8341 19.0068 54.0045 18.793C54.1749 18.5764 54.2601 18.3237 54.2601 18.0349C54.2601 17.772 54.1851 17.5569 54.0349 17.3893C53.8876 17.2218 53.6868 17.0832 53.4327 16.9734C53.1814 16.8637 52.8969 16.7669 52.5792 16.6832L51.5307 16.3972C50.8202 16.2037 50.257 15.9192 49.8411 15.5438C49.4281 15.1683 49.2216 14.6715 49.2216 14.0534C49.2216 13.5422 49.3602 13.096 49.6375 12.7147C49.9148 12.3335 50.2902 12.0374 50.7639 11.8266C51.2376 11.6128 51.7719 11.506 52.3669 11.506C52.9677 11.506 53.4976 11.6114 53.9569 11.8222C54.419 12.0331 54.7829 12.3233 55.0486 12.693C55.3144 13.0598 55.453 13.4815 55.4645 13.9581H54.1735ZM60.4319 13.8455V14.8852H56.7971V13.8455H60.4319ZM57.7718 12.2511H59.0672V18.5461C59.0672 18.7974 59.1048 18.9866 59.1799 19.1136C59.255 19.2378 59.3517 19.323 59.4701 19.3692C59.5915 19.4126 59.7229 19.4342 59.8644 19.4342C59.9684 19.4342 60.0593 19.427 60.1373 19.4126C60.2153 19.3981 60.276 19.3866 60.3193 19.3779L60.5532 20.448C60.4781 20.4769 60.3713 20.5058 60.2326 20.5347C60.094 20.5664 59.9207 20.5838 59.7128 20.5866C59.3719 20.5924 59.0542 20.5318 58.7596 20.4047C58.465 20.2776 58.2267 20.0812 58.0448 19.8155C57.8628 19.5498 57.7718 19.2162 57.7718 18.8147V12.2511ZM64.0454 20.6473C63.6238 20.6473 63.2425 20.5693 62.9017 20.4134C62.5609 20.2545 62.2908 20.0249 62.0915 19.7245C61.8951 19.4241 61.7969 19.0559 61.7969 18.6197C61.7969 18.2443 61.8691 17.9352 62.0136 17.6926C62.158 17.45 62.3529 17.2579 62.5984 17.1164C62.8439 16.9749 63.1183 16.868 63.4216 16.7958C63.7249 16.7236 64.0339 16.6687 64.3487 16.6312C64.7473 16.585 65.0708 16.5474 65.3192 16.5185C65.5676 16.4868 65.7481 16.4362 65.8607 16.3669C65.9734 16.2976 66.0297 16.1849 66.0297 16.029V15.9987C66.0297 15.6203 65.9228 15.3271 65.7091 15.1192C65.4982 14.9112 65.1834 14.8072 64.7646 14.8072C64.3285 14.8072 63.9848 14.904 63.7335 15.0975C63.4851 15.2881 63.3133 15.5004 63.218 15.7344L62.0006 15.4571C62.145 15.0527 62.3558 14.7264 62.6331 14.478C62.9133 14.2267 63.2353 14.0447 63.5992 13.9321C63.9631 13.8166 64.3458 13.7588 64.7473 13.7588C65.013 13.7588 65.2946 13.7906 65.5921 13.8541C65.8925 13.9148 66.1726 14.0274 66.4326 14.192C66.6954 14.3567 66.9106 14.5921 67.0781 14.8982C67.2456 15.2015 67.3294 15.5957 67.3294 16.081V20.5H66.0643V19.5902H66.0124C65.9286 19.7577 65.803 19.9223 65.6354 20.0841C65.4679 20.2458 65.2527 20.3801 64.9899 20.487C64.7271 20.5939 64.4123 20.6473 64.0454 20.6473ZM64.3271 19.6075C64.6852 19.6075 64.9914 19.5368 65.2455 19.3952C65.5026 19.2537 65.6975 19.0689 65.8304 18.8407C65.9661 18.6096 66.034 18.3627 66.034 18.0999V17.242C65.9878 17.2883 65.8983 17.3316 65.7654 17.372C65.6354 17.4096 65.4867 17.4428 65.3192 17.4717C65.1517 17.4977 64.9885 17.5222 64.8296 17.5453C64.6708 17.5655 64.5379 17.5829 64.431 17.5973C64.1798 17.6291 63.9501 17.6825 63.7422 17.7576C63.5371 17.8327 63.3725 17.941 63.2483 18.0825C63.127 18.2212 63.0663 18.406 63.0663 18.6371C63.0663 18.9577 63.1847 19.2003 63.4216 19.3649C63.6584 19.5267 63.9602 19.6075 64.3271 19.6075ZM69.2988 20.5V13.8455H70.5508V14.9026H70.6201C70.7415 14.5444 70.9552 14.2628 71.2613 14.0577C71.5704 13.8498 71.9199 13.7458 72.3098 13.7458C72.3906 13.7458 72.486 13.7487 72.5957 13.7545C72.7084 13.7603 72.7964 13.7675 72.86 13.7761V15.0152C72.808 15.0008 72.7156 14.9849 72.5827 14.9675C72.4499 14.9473 72.317 14.9372 72.1841 14.9372C71.878 14.9372 71.605 15.0022 71.3653 15.1322C71.1285 15.2593 70.9407 15.4369 70.8021 15.6651C70.6635 15.8903 70.5942 16.1474 70.5942 16.4362V20.5H69.2988ZM77.7245 13.8455V14.8852H74.0896V13.8455H77.7245ZM75.0644 12.2511H76.3598V18.5461C76.3598 18.7974 76.3973 18.9866 76.4724 19.1136C76.5475 19.2378 76.6443 19.323 76.7627 19.3692C76.884 19.4126 77.0154 19.4342 77.1569 19.4342C77.2609 19.4342 77.3519 19.427 77.4299 19.4126C77.5079 19.3981 77.5685 19.3866 77.6118 19.3779L77.8458 20.448C77.7707 20.4769 77.6638 20.5058 77.5252 20.5347C77.3866 20.5664 77.2133 20.5838 77.0053 20.5866C76.6645 20.5924 76.3468 20.5318 76.0522 20.4047C75.7576 20.2776 75.5193 20.0812 75.3373 19.8155C75.1554 19.5498 75.0644 19.2162 75.0644 18.8147V12.2511ZM90.1395 11.6273V20.5H88.9091L84.3991 13.9928H84.3168V20.5H82.9781V11.6273H84.2172L88.7315 18.1432H88.8138V11.6273H90.1395ZM95.1004 20.6343C94.4448 20.6343 93.8801 20.4942 93.4065 20.2141C92.9357 19.931 92.5718 19.5339 92.3147 19.0227C92.0605 18.5085 91.9335 17.9063 91.9335 17.2161C91.9335 16.5344 92.0605 15.9337 92.3147 15.4138C92.5718 14.8939 92.9299 14.4881 93.3891 14.1964C93.8513 13.9047 94.3914 13.7588 95.0094 13.7588C95.3849 13.7588 95.7488 13.8209 96.1012 13.9451C96.4536 14.0693 96.7698 14.2643 97.05 14.53C97.3302 14.7957 97.5511 15.1408 97.7129 15.5654C97.8746 15.9871 97.9555 16.4998 97.9555 17.1034V17.5626H92.6656V16.5922H96.6861C96.6861 16.2514 96.6168 15.9496 96.4781 15.6867C96.3395 15.421 96.1445 15.2116 95.8933 15.0585C95.6449 14.9054 95.3531 14.8289 95.0181 14.8289C94.6542 14.8289 94.3365 14.9184 94.065 15.0975C93.7964 15.2737 93.5884 15.5048 93.4411 15.7907C93.2967 16.0737 93.2245 16.3813 93.2245 16.7135V17.4717C93.2245 17.9165 93.3025 18.2948 93.4585 18.6067C93.6173 18.9187 93.8383 19.157 94.1213 19.3216C94.4044 19.4833 94.7351 19.5642 95.1134 19.5642C95.3589 19.5642 95.5828 19.5295 95.7849 19.4602C95.9871 19.388 96.1619 19.2812 96.3092 19.1396C96.4565 18.9981 96.5691 18.8234 96.6471 18.6154L97.8732 18.8364C97.775 19.1974 97.5988 19.5137 97.3446 19.7852C97.0933 20.0538 96.7771 20.2632 96.3958 20.4134C96.0174 20.5607 95.5857 20.6343 95.1004 20.6343ZM101.068 20.5L99.1093 13.8455H100.448L101.752 18.7324H101.817L103.125 13.8455H104.464L105.764 18.7107H105.829L107.124 13.8455H108.463L106.509 20.5H105.188L103.836 15.6954H103.736L102.385 20.5H101.068ZM113.513 20.5V11.6273H116.676C117.366 11.6273 117.938 11.7529 118.391 12.0042C118.845 12.2555 119.184 12.5992 119.409 13.0353C119.635 13.4685 119.747 13.9567 119.747 14.4996C119.747 15.0455 119.633 15.5365 119.405 15.9727C119.18 16.4059 118.839 16.7496 118.382 17.0038C117.929 17.255 117.359 17.3807 116.671 17.3807H114.496V16.2456H116.55C116.986 16.2456 117.34 16.1705 117.611 16.0203C117.883 15.8672 118.082 15.6593 118.209 15.3964C118.336 15.1336 118.4 14.8347 118.4 14.4996C118.4 14.1646 118.336 13.8671 118.209 13.6072C118.082 13.3472 117.881 13.1436 117.607 12.9963C117.336 12.849 116.977 12.7754 116.533 12.7754H114.852V20.5H113.513ZM121.561 20.5V11.6273H124.723C125.411 11.6273 125.981 11.7457 126.435 11.9825C126.891 12.2194 127.232 12.5472 127.457 12.966C127.682 13.3819 127.795 13.8628 127.795 14.4087C127.795 14.9517 127.681 15.4297 127.453 15.8427C127.227 16.2528 126.887 16.572 126.43 16.8001C125.977 17.0283 125.406 17.1424 124.719 17.1424H122.323V15.99H124.598C125.031 15.99 125.383 15.9279 125.655 15.8037C125.929 15.6795 126.13 15.499 126.257 15.2621C126.384 15.0253 126.448 14.7408 126.448 14.4087C126.448 14.0736 126.383 13.7834 126.253 13.5379C126.125 13.2924 125.925 13.1046 125.65 12.9746C125.379 12.8418 125.022 12.7754 124.58 12.7754H122.899V20.5H121.561ZM125.941 16.4969L128.133 20.5H126.608L124.459 16.4969H125.941Z" fill="white"/>
<g style="mix-blend-mode:multiply">
<rect x="38" width="1" height="32" fill="#E151FF"/>
</g>
<defs>
<linearGradient id="paint0_linear_224_77" x1="139.309" y1="32.011" x2="95.0243" y2="-50.834" gradientUnits="userSpaceOnUse">
<stop stop-color="#CF1E9A"/>
<stop offset="0.177083" stop-color="#CF149C"/>
<stop offset="0.609375" stop-color="#7D1BA0"/>
<stop offset="1" stop-color="#691EA3"/>
</linearGradient>
<clipPath id="clip0_224_77">
<rect width="21.3594" height="14" fill="white" transform="translate(8 9)"/>
</clipPath>
</defs>
</svg>
