<svg xmlns="http://www.w3.org/2000/svg" viewBox="0 0 360 360" width="100" height="100">
  <path d="m214 40 146 254.6H68.1L214.1 40Z" fill="#C30F2E"/>
  <path d="m124.2 77.3 124.2 217.3H0L124.2 77.3Z" fill="#DD0330"/>
  <path d="M340 230.7h-315v-3.4h310v3.4ZM288.8 280.5c-1.2 0-2.4-.5-3.3-1.5-5.7-5.7-6-29-5.7-63.8.2-19 .4-45-2.7-47.1-3 1.2-3.2 22.7-3.4 37-.2 16.6-.5 33.7-3.2 42.5-.8 2.6-1.8 5-3.9 4.8-3-.3-3.9-5-6-23.2a124.8 124.8 0 0 0-3.4-19.5c-1.2 2.7-2.5 10-3.5 15-1.3 7-2.5 13.7-4 16.6-1.2 2.2-3.1 5-5.8 4.5-3.6-.7-4.7-8-5-12.2 0-35.9-4.7-40-5.6-40.5h-.4c-3.3 1.5-3.5 13.1-3.7 24.4-.1 8.2-.3 17.5-1.5 26.3-1.5 11.3-3.4 13.5-5.8 13.4-5.4-.4-5.5-19-5.5-21.1v-2.3c.1-4.4.3-12.4-2.4-15-.3-.3-.8-.7-1.2-.6-1.9.5-3.9 6.7-4.5 8.7l-.5 1.5-.4 1.3c-1.5 4.3-3.1 8.7-5.9 9.7-1 .4-2.1.3-3.1-.2-1.3-.8-2.4-2.3-3.5-5l-1.5-4.3c-.6-1.7-1.2-3.6-2-5.3-.5-1.4-2-2-3.9-1.7-3.9.7-4.5 4.7-5 10.6l-.4 3c0 .3-.7 9-1.1 11.7-1.3 7.6-2.9 10.6-5.5 10.4-6.6-.6-9.6-29.3-9.4-41.5.1-9.3-1.6-12.7-2.6-13.2 0 0-.2-.1-.6.1-1.2.8-2.3 3.3-2 6 3.7 28.6 1 61.3-5.5 68.7-2 2.3-4.9 2.3-6.8.3-5.7-5.7-6-29-5.7-63.8.2-19 .4-45-2.7-47.1-3 1.2-3.2 22.7-3.4 37-.2 16.6-.5 33.7-3.2 42.5-.8 2.6-1.8 5-3.9 4.8-3-.3-3.9-5-6-23.2a124.6 124.6 0 0 0-3.4-19.5c-1.2 2.7-2.5 10-3.5 15-1.3 7-2.5 13.7-4 16.6-1.3 2.2-3.1 5-5.8 4.5-3.6-.7-4.7-8-5-12.2 0-35.9-4.7-40-5.6-40.5H96c-3.3 1.5-3.5 13.1-3.7 24.4-.1 8.2-.3 17.5-1.5 26.3-1.5 11.3-3.4 13.5-5.8 13.4-5.4-.4-5.5-19-5.5-21.1v-2.3c.1-4.4.3-12.4-2.4-15-.3-.3-.8-.7-1.2-.6-1.9.5-3.9 6.7-4.5 8.7a63 63 0 0 1-1 2.7c-1.4 4.4-3 8.8-5.8 9.8-1 .4-2.1.3-3.1-.2-1.4-.8-2.5-2.3-3.5-5l-1.5-4.3c-.6-1.7-1.2-3.6-2-5.3-.5-1.4-2-2-3.9-1.7-4.5.8-5.5 6.4-6.4 13l-.1 1.2-3.4-.4.1-1.2c.8-5.8 1.9-14.6 9.2-16 3.5-.5 6.5.9 7.7 3.7l2 5.7 1.5 4.1c1 2.4 1.7 3 2 3.2 1.7-.5 3.4-5.9 4-7.6a32.6 32.6 0 0 1 1-2.8c1.5-4.8 3.4-10 6.9-10.9 1-.3 2.6-.2 4.4 1.5 3.8 3.6 3.6 12 3.4 17.4v2.3c0 8.8 1.3 15 2.3 17 .5-1 1.4-3.6 2.2-9.8 1.2-8.5 1.4-17.7 1.5-25.9.2-14.4.4-24.9 5.6-27.3.8-.5 2-.7 3.4 0 5 2.5 7.5 16.7 7.5 43.3.3 4.1 1.4 8.5 2.4 9.1 0-.1.7-.6 2-2.8 1.2-2.5 2.5-9.4 3.7-15.6 2.5-13.5 3.6-18.2 6.6-18.5 2.3-.2 3.3 2.7 3.8 3.9 1.2 3.4 2.1 11.1 3.1 19.3.8 6.3 1.9 15.3 3 19 0-.4.2-.8.4-1.2 2.5-8.3 2.8-25.2 3-41.6.3-22.7.7-36.8 4.8-39.7 1-.6 2-.8 3.2-.4 4.8 1.6 5.2 15.8 5 50.4-.3 25-.5 56.2 4.6 61.3.5.5.8.5.9.5.2 0 .6-.2 1-.7 5.1-5.8 8.4-36.6 4.7-66-.5-3.7 1-7.5 3.3-9.2a4 4 0 0 1 4.2-.3c3 1.6 4.5 7 4.4 16.2-.2 16 3.6 34.8 6.1 37.8a22 22 0 0 0 2-7.2c.4-2.6 1.1-11.5 1.1-11.6l.3-3c.5-5.4 1.2-12.3 8-13.5 3.4-.6 6.4.8 7.6 3.6l2 5.7 1.5 4.1c1 2.4 1.7 3 2 3.2 1.7-.5 3.4-5.9 4-7.6l.5-1.4.4-1.4c1.6-4.8 3.5-10 7-10.9 1-.3 2.6-.2 4.4 1.5 3.8 3.6 3.6 12 3.4 17.4v2.3c0 8.8 1.3 15 2.3 17a37 37 0 0 0 2.3-9.8c1.1-8.5 1.3-17.7 1.4-25.9.2-14.4.4-24.9 5.6-27.3.8-.5 2-.7 3.4 0 5 2.5 7.5 16.7 7.5 43.3.4 4.1 1.5 8.5 2.4 9.1 0-.1.7-.6 2-2.8 1.2-2.5 2.5-9.4 3.7-15.6 2.5-13.5 3.6-18.2 6.6-18.5 2.3-.2 3.3 2.7 3.8 3.9 1.2 3.4 2.1 11.1 3.1 19.3.8 6.3 1.9 15.3 3 19 0-.4.2-.8.4-1.2 2.5-8.3 2.8-25.2 3-41.6.3-22.7.7-36.8 4.8-39.7 1-.6 2-.8 3.2-.4 4.8 1.6 5.2 15.8 5 50.4-.3 25-.5 56.2 4.6 61.3.5.5.8.5.9.5.2 0 .6-.2 1-.7 5.1-5.8 8.4-36.6 4.7-66-.5-3.8.6-7.7 2.6-9.2 1-.7 2.2-.9 3.3-.4 2.9 1.2 4.8 6.5 6 16.1l1.3 12.7c.9 9.5 2.1 22.1 3.8 25 .5-.7 1.5-2.5 3-7.2l3.3 1c-2.4 7.3-4.3 10-6.7 9.8-3.8-.4-4.9-8-6.8-28.2a572 572 0 0 0-1.3-12.7c-1.5-12.3-4-13.4-4-13.4-.4.2-1.5 2.8-1.1 6 3.6 28.7 1 61.4-5.6 68.8-1 1.2-2.2 1.8-3.5 1.8" fill="#fff"/>
</svg>
