<svg xmlns="http://www.w3.org/2000/svg" viewBox="0 0 100 100" width="100" height="100">
  <path d="M96.88 79.31h-.38v-.19a2.52 2.52 0 1 0-2.5-4.37c-.13 0-.13-.06-.19-.13a2.5 2.5 0 0 0-1.56-4 2.5 2.5 0 0 0-2.81 1.5l-.25-.06.06-.37a2.53 2.53 0 1 0-5.06 0v.37H84a2.52 2.52 0 1 0-4.38 2.5A10.06 10.06 0 0 0 86.7 92c4.75 0 8.75-3.25 9.81-7.63h.31a2.53 2.53 0 0 0 0-5.06h.06Zm0-21.5a1.25 1.25 0 1 0 0-2.5h-.2v-.12a1.27 1.27 0 1 0-.5-2.5c-.3 0-.58.11-.8.31v-.13a1.25 1.25 0 0 0-.82-1.93 1.25 1.25 0 0 0-1.44.69 5 5 0 1 0 0 9.74 1.26 1.26 0 0 0 2.2-1.24l.06-.07a1.25 1.25 0 0 0 1.56 0 1.25 1.25 0 0 0-.31-2.19v-.12h.18l.06.06Z" fill="#44D860"/>
  <path d="M10.75 81.88c-3.75 0-7-2.07-8.75-5.07A10.12 10.12 0 0 0 10.75 92h70.88c5.62 0 10.12-4.56 10.12-10.13v-60.8c0-5.63-4.5-10.13-10.12-10.13H36.06l-1.25-2.19a1.44 1.44 0 0 0-2.5 0l-1.25 2.19-1.31-2.19a1.44 1.44 0 0 0-2.5 0L26 10.94l-1.31-2.19a1.44 1.44 0 0 0-2.5 0l-1.25 2.19h-.06l-2.13-2.06a1.44 1.44 0 0 0-2.5.62l-.62 2.63-2.63-.76a1.44 1.44 0 0 0-1.81 1.82l.69 2.62-2.57.69A1.44 1.44 0 0 0 8.7 19l2.06 2.06-2.19 1.25a1.44 1.44 0 0 0 0 2.57l2.19 1.25-2.19 1.25a1.44 1.44 0 0 0 0 2.56l2.19 1.25-2.19 1.25a1.44 1.44 0 0 0 0 2.56l2.19 1.25-2.19 1.25a1.44 1.44 0 0 0 0 2.56l2.19 1.25-2.19 1.25a1.44 1.44 0 0 0 0 2.56l2.19 1.26-2.19 1.24a1.44 1.44 0 0 0 0 2.57l2.19 1.25-2.19 1.25a1.44 1.44 0 0 0 0 2.56l2.19 1.25-2.19 1.25a1.44 1.44 0 0 0 0 2.56l2.19 1.25-2.19 1.25a1.44 1.44 0 0 0 0 2.56l2.19 1.25-2.19 1.25a1.44 1.44 0 0 0 0 2.57l2.19 1.25-2.19 1.25a1.44 1.44 0 0 0 0 2.56l2.19 1.25L8.56 78a1.44 1.44 0 0 0 0 2.56l2.19 1.25v.06Z" fill="#3ECC5F"/>
  <path d="M51.25 92h30.38c5.62 0 10.12-4.56 10.12-10.13v-35.5H61.37c-3.74 0-7 2.07-8.74 5.07h8.74v10.12H51.26V71.7h10.13V92H51.24Z" fill="#FFFF50"/>
  <path d="M71.5 79.31h-.31v-.19a2.52 2.52 0 0 0-2.5-4.37l-.25-.13a2.5 2.5 0 0 0-1.5-4 2.5 2.5 0 0 0-2.81 1.5l-.25-.06v-.31a2.5 2.5 0 0 0-5 0v.31h-.13a2.52 2.52 0 1 0-4.38 2.5A10.13 10.13 0 0 0 61.45 92c4.75 0 8.75-3.25 9.81-7.63h.31a2.53 2.53 0 1 0 0-5.06h-.06Zm-5.06-21.5a1.25 1.25 0 0 0 0-2.5h-.13v-.12a1.28 1.28 0 1 0-.56-2.5c-.28.02-.54.13-.75.31l-.06-.13a1.25 1.25 0 0 0-.75-1.93 1.25 1.25 0 0 0-1.44.69 5 5 0 1 0 0 9.74 1.26 1.26 0 1 0 2.19-1.24l.06-.07a1.25 1.25 0 0 0 1.56 0 1.25 1.25 0 0 0-.31-2.19v-.12h.19v.06Z" fill="#44D860"/>
  <path d="m56.31 28.38 35.44-2.25V41.3l-35.44-2.19a5.38 5.38 0 0 1 0-10.74Z" fill="#fff"/>
  <path d="M31 27.44a1.25 1.25 0 0 1-1.25-1.25 3.81 3.81 0 0 0-7.63 0 1.25 1.25 0 0 1-2.5 0 6.31 6.31 0 0 1 12.63 0A1.25 1.25 0 0 1 31 27.44Zm60.75 3.06c-1.56 0-2.31 1.63-2.94 3-.69 1.44-1.25 2.38-2.06 2.38-1 0-1.5-1.13-2.13-2.26-.62-1.37-1.37-2.8-3-2.74-1.56 0-2.3 1.37-2.93 2.56-.69 1.25-1.19 2.06-2.06 2.06-1 0-1.5-.94-2.13-1.94-.63-1.12-1.44-2.44-3-2.37-1.5 0-2.25 1.25-2.94 2.25-.62 1.06-1.19 1.75-2.06 1.69-1 0-1.56-.76-2.13-1.63-.68-.94-1.43-2-3-1.94-1.5 0-2.24 1-2.87 1.82-.63.8-1.13 1.43-2.13 1.37a.5.5 0 1 0-.06 1c1.5.06 2.31-.88 3-1.75.63-.75 1.06-1.44 2.13-1.44.94 0 1.37.56 2.12 1.5.63.94 1.38 2 2.88 2.06 1.56 0 2.31-1.12 3-2.12.62-.94 1.12-1.75 2.12-1.81.88 0 1.38.69 2.06 1.87.63 1.13 1.44 2.38 2.94 2.44 1.56 0 2.38-1.31 3-2.5.63-1.13 1.13-2.13 2.13-2.13.87 0 1.37.82 2.06 2.2.63 1.24 1.38 2.74 2.94 2.8h.06c1.56 0 2.31-1.56 3-2.93.56-1.25 1.06-2.38 2-2.44v-1ZM71.5 20.44c-.15 0-.3-.02-.44-.07a1.31 1.31 0 0 1-.44-.3l-.12-.2c-.15-.2-.24-.43-.25-.68.01-.18.05-.35.13-.5.08-.23.24-.42.43-.57.14-.08.28-.15.44-.18h.5c.18.02.35.09.5.18l.19.2.12.18c.09.13.15.28.19.44v.25a1.25 1.25 0 0 1-.75 1.18c-.16.06-.33.08-.5.07Zm10.13-.63a1.25 1.25 0 0 1-1-.56c-.13-.2-.2-.45-.2-.69a1.25 1.25 0 0 1 .5-1.06c.14-.09.29-.15.44-.19h.5c.24.05.46.15.63.32a1.25 1.25 0 0 1 .31 1.43l-.12.19-.13.19c-.23.23-.54.36-.87.37h-.06Z" fill="#000"/>
</svg>
