<svg xmlns="http://www.w3.org/2000/svg" viewBox="0 0 32 32" width="100" height="100">
  <path d="M21.28 23.14h-.98a.85.85 0 0 1-.35-.06.75.75 0 0 1-.26-.25 1.66 1.66 0 0 1-.22-.67c-.06-.36-.1-.82-.1-1.38v-7.67h1.56c.22 0 .7-.11.7-1.11v-.82c0-.31-.04-.55-.12-.73-.12-.25-.33-.4-.58-.4h-1.55V4.2c0-.33-.04-.58-.12-.77-.12-.27-.33-.42-.58-.42H17.3c-.24 0-.44.15-.56.42-.08.18-.13.42-.15.74l-.25 5.9h-.64c-.25 0-.46.14-.57.39-.09.18-.13.42-.13.73V12c0 1 .49 1.1.7 1.1h.64v7.63c0 .86.07 1.62.19 2.26.13.67.3 1.17.5 1.56a2.75 2.75 0 0 0 1.8 1.36c.3.06.63.09 1.02.09h1.4c.17 0 .75-.08.75-1.01v-.9c0-.7-.37-.95-.72-.95ZM12.23 4c-.1 0-.18.01-.25.03l-4.27 1c-.27.05-.71.26-.71 1.04v1.42c0 .27.04.49.12.65a.68.68 0 0 0 .69.38c.07 0 .23-.04 1.05-.24v16.34c0 .55.1 1.38.82 1.38h2.48c.72 0 .84-.82.84-1.37V5.08c0-.3-.04-.52-.13-.68a.7.7 0 0 0-.64-.4ZM31.9 10.38c-.1-.24-.3-.38-.55-.38H30.1c-.25 0-.47.1-.63.31-.13.17-.22.42-.27.8l-1.24 8.46-1.6-8.52c-.06-.38-.16-.63-.31-.78a.84.84 0 0 0-.62-.26H23.6a.57.57 0 0 0-.52.37c-.06.14-.09.33-.09.56 0 .1.01.22.04.39l2.94 12.35c.27 1.3.29 1.55.29 1.6 0 .63-.08 1.11-.22 1.44-.13.28-.23.34-.25.34-.4 0-.8-.31-1.2-.31-.14 0-.48.05-.64.55-.07.23-.11.54-.11.96 0 .48.06.76.2.93.47.7 1.34.81 2.11.81a2.54 2.54 0 0 0 1.45-.42c.37-.27.7-.73.97-1.43.26-.64.5-1.56.72-2.73l2.66-14.04a3 3 0 0 0 .04-.4c0-.25-.03-.45-.1-.6ZM5.23 4c-.1 0-.18.01-.25.03l-4.27 1C.44 5.1 0 5.3 0 6.07v1.42c0 .27.04.49.12.65a.68.68 0 0 0 .7.38c.05 0 .22-.04 1.04-.23v16.33c0 .55.1 1.38.82 1.38h2.48c.72 0 .84-.82.84-1.38V5.08c0-.3-.04-.52-.13-.69A.7.7 0 0 0 5.23 4Z" fill="#000"/>
</svg>
