<svg xmlns="http://www.w3.org/2000/svg" viewBox="0 0 6000 6000" width="100" height="100">
  <path d="M1353 1786c32-27 61-36 61-36-3 61 4 113 18 157 10 31 24 61 42 89 52 81 120 113 120 113 8-156 89-209 89-209-14 91-13 325 67 511 93 216-3 206 127 477 163 341 625 336 625 336a614 614 0 0 1-791-491 768 768 0 0 1-179-120c5 1 90 20 170 21-3-59-4-110-25-162-77-10-161-61-161-61-8 149-85 224-172 250l-22 113c84 113 296 279 296 279s-178-56-314-187l-50 254c87 70 177 130 264 184 254 156 601 227 691 223 86-15 176-34 264-55-91-21-307-76-428-142 89 5 435 50 766 52 309-89 551-177 551-177s-127-178-37-386a466 466 0 0 1 377-271c79-59 184-283 197-488 13-213-137-287-222-398-86-110-141-255-252-398a538 538 0 0 1 172 144c15-39 92-258 24-390-74-146-243-212-243-212 19-21 67-44 67-44-244-123-468 38-468 38-6-37-2-75-2-75-124 104-160 300-160 300 264-2 358 100 358 100-284-49-602-23-849 102a1819 1819 0 0 0-469 386c30-150 109-217 109-217-131-103-270-86-270-86 27 19 56 68 56 68a464 464 0 0 0-364 211c-44 69-60 143-39 203l6-6Zm1331-77s39-130 175-188c136-59 408-12 563 155 154 167 109 345-17 413-193 104-263-10-422-64s-354-97-299-316Zm112 441c94-13 125 47 90 128-35 82-86 120-129 131-86 20-190-55-192-113-3-58 138-133 231-146Zm51 339c66 40 213 9 223-172 0 0 84 110-9 206 26 36 67 233-80 310-162 84-274-85-298-132-110-12-130-110-130-110 205 98 294-102 294-102Zm-946-258c21-252 209-490 431-436 215 51 177 249 131 377-46 127-31 197-66 293a246 246 0 0 1-250 164c-157-9-265-154-246-398Z" fill="#797979"/>
  <path d="M3996 2484s-49 116-254 156c-229 45-386 210-280 353 108 146 377 107 377 107-242 133-425-20-425-20 85 207 399 274 652 64a757 757 0 0 0 275-475c-30 67-93 140-97 145 4-9 80-195 69-336-11-144-123-255-322-344-9 202-156 399-156 399 65-10 161-49 161-49ZM2637 2325c69 55 122 32 168-20 47-51 32-95-36-74-68 20-103 40-134 59-7 5-23 15 2 35ZM1148 2645c-26-14-47-31-59-51a343 343 0 0 0 130 14c26-2 54-8 80-20 27-11 50-29 69-51 54-65 65-147 44-227a368 368 0 0 0-114-186 345 345 0 0 0-132-75c-201-54-442 195-317 536 55 152 143 279 245 388l54-328Z" fill="#797979"/>
  <path d="m2606 3481 92-45-277-724-698-158s-120-25-234-93l-42-99c-114-203-327-228-457-78-130 151-73 406 148 616s721 555 1309 608l159-27ZM2959 1950c119 47 295 154 410 87 116-67 117-219-38-351-28-24-182-142-348-127-165 14-263 144-237 244s103 103 213 147Zm-38-160c6-73 75-128 153-121 79 6 138 71 132 144l-3 19c-21-44-66-77-120-81-72-6-135 39-150 102-9-19-13-41-12-63Z" fill="#4B4B4B"/>
  <path d="M2152 2568c174-5 197-174 224-308s129-274 0-375c-138-108-383 60-407 300-14 130 9 389 183 383Zm-42-423c35-70 117-101 183-68 20 10 36 25 48 43-62-20-133 11-165 75-24 49-20 104 7 145l-17-8c-66-33-91-116-56-187ZM2694 2364c43 16 47 23 76 0 30-24 72-65 72-65l16-34v-24l-13-34-17-11c-1 0-23-1-29 1-7 2-21 3-31 7l-78 40s-40 103 4 120ZM1501 1887c9-31 60-76 60-76-25 150 60 239 60 239 186 27 264-31 264-31s360-495 62-575a394 394 0 0 0-441 146c40-15 115-13 115-13-152 109-120 310-120 310ZM3427 1417l110-39c107-251-66-361-66-361 36-2 72 0 108 3-164-200-408-125-408-125 20-45 71-91 71-91-195 5-342 142-361 247l81 161 465 205ZM3950 2525c102-55 69-184-5-246 0 0-116 193-136 254-19 61 39 48 141-8Z" fill="#4B4B4B"/>
  <path d="M1156 2997c-327-312-362-641-251-789a328 328 0 0 1 358-129l-41-54-85-21h-87l-87 28-101 84-55 99-39 106v84l15 131 41 113 70 143 101 162 85 92 152 129 164 108 141 81 157 79 224 76 250 32c-317-98-686-241-1012-554ZM1359 1852l13-29 25 101 46 89c15 30 60 74 62 77 2 4 106 69 106 69l2-69a412 412 0 0 1-159-372s-39 0-72 21c0 0 19-276 354-366l-16-21c-6-7 140-22 260 58l21-14-12-35-74-47-102-32-82-8-74 8-20 17 8 27-42 41-87 25-102 84-51 81-41 87-18 106 15 83 40 19ZM1964 2071l-8 69v41c78-155 162-311 429-303l-31-45-49-8-42-7-77 15-48 26-52 44-52 55-33 43-37 70ZM2962 1546s-48-21-126 21a273 273 0 0 0-111 126l-24 56 15 70c4 23 32 58 33 60l47 34 73 38 69 7c-193-105-191-315 24-412ZM3586 895l-39-45-70-58 41-25c14-8-33-29-35-30-1-2-58-34-58-34l-94-19h-142l-74 14-72 14c-25 5-38-5-38-9l-4-29-30 8s-52 26-82 77c-29 51-59 97-59 97l-39 86-25 116 77-6c26-2 40-165 116-244l10 53c3 18 187-176 414-101l-46 55c-16 19 234 63 315 257l2-63-35-69-33-45Z" fill="#A7A5A5"/>
  <path d="m3567 1428-56-76-21-27a897 897 0 0 0-417-230l-143-27h-151l-210 17-213 69-170 102 77 146 164 95 102 182c2 7 60 222 60 232 0 9-39 195-51 237-12 43-62 412-108 506-45 94-242 262-336 304-94 41-74 165-73 167s95 52 95 52l103 36 85 1c161 23 437 10 673-45l163-102 75-187 40-213 84-226c29-75 105-159 111-174l92-235 34-385-9-219Zm-886 949-18-10c-2-1-20-10-24-16l-18-24-24-20 4-25 20-22 3-13 39-9 70-36 49-7 32-3 15 4 7 6 16 15v10c2 6 0 20 0 20l1 15c0 5-10 29-11 31l-19 28c-1 3-18 20-22 23-3 4-22 17-24 19s-31 12-31 12l-35 4-30-2Zm341 355c-10 29-46 49-47 50l-60 26h-49l-73-27-44-36-34-79 18-27 94-57 24-22 163-10c54-4 18 45 23 76s-6 76-15 106Zm461-790c-4 33-22 58-49 82-28 24-82 58-135 67s-132-10-202-50c-70-39-144-67-145-70 0 0-116-28-145-40-30-13-64-61-87-96s-20-63-11-105 70-118 70-118l72-59 89-17 96-8 61 10 98 23c33 8 89 45 91 45l81 59s41 44 42 47 53 79 52 81c-2 2 24 77 24 80 1 3 2 36-2 69Z" fill="#C6CACD"/>
  <path d="M3934 1942c-21-96-69-140-69-140l-116-128c-50-56-89-121-89-121l-112-150-8 10c-255-224-528-218-528-218 167 110 148 254 148 254 276 135 307 312 307 312s-21 0-9 23c12 22 12 72 26 118 13 45-17 45-26 90-10 45-30 28-58 57-27 30-78 26-136 42-57 17-183-47-183-47 60 61 72 233-8 284l5 36c4 22-19 73-34 117l-17 47s5 77 15 128-11 93-11 93c134 209-54 420-54 420 142-32 269-81 347-145l-4-22 103-282 79-48 67-26 101-35c28-11 53-27 76-46 36-31 47-51 77-110s61-99 82-167c20-69 22-95 29-162 7-66 20-88 0-184Z" fill="#A1A5A8"/>
  <path d="m2646 2249 93-64c192-111 124-179 64-237-155-241-65-248-101-416-70-352-516-276-516-276l-179 179c-110 97-288 356-356 537l-11 92 11 150 17 89c6 29 43 132 44 139 1 6 28 71 28 71l19 117 23 161c8 54 26 54 87 176a276 276 0 0 0 178 144c358 127 782-29 721-335l-31-73c-23-53-8-80-8-80 133-140-3-225-3-225s5-9-26-15c-32-6-77-42-99-69-22-28 45-65 45-65Zm-184-196-15 73-23 65-27 87-11 68-18 84-50 95-69 54-50 15h-64l-49-13-44-24-51-53-36-64-19-48c-6-17 1-77 0-83l-6-101a4901 4901 0 0 1 42-161l51-94 71-63 100-63 42-7h61l67 18 45 33 41 60 15 65c5 22-3 54-3 57Z" fill="#F6FBFD"/>
  <path d="M2864 2598s-39 55-106 86c75 172 305 98 237-105-59 39-131 19-131 19Z" fill="#AA282A"/>
  <path d="M2832 2791h20c-11-64 53-182 122-215l-123-17-135 113 57 83 59 36Z" fill="#D63D3D"/>
  <path d="M3648 3711a917 917 0 0 1 454 650c-8-16-250-526-787-546-595 173-1216 290-1326 288-1 92 177 1180 252 1548 410 215 1015 126 1279 61 458-130 765-662 765-662-22 267-209 480-215 486 270-126 636-447 690-566l-477-1539c-153 99-381 194-635 280Z" fill="#797979"/>
  <path d="M4411 2429s132 341-213 719c-224 238-582 296-770 133 0 0-571 214-1045 306-473 92-818 112-738-109-36-16-78-38-121-62-237 83-296 271-234 407-124-68-185-296 111-481l-54-34s-261 108-375 297c-115 189-24 377 219 408 244 32 927 15 1906-245 980-261 1728-720 1830-1009 101-289-314-355-516-330Z" fill="#797979"/>
  <path d="m4774 4811-77-214-88-285-109-328-75-270-117-346-707 308-397 111-347 102-356 74-386 82-121 35c332 150 691-119 1144 36 453 154 750 491 759 732 0 0 120-135 127-280 131 562-177 1056-1201 1244 0 0 413 31 632-20 220-51 410-117 410-117l250-105 183-90 196-154 215-203 104-146-39-166ZM3403 3533c732-174 1326-603 1372-795 45-191-263-190-263-190a525 525 0 0 1-111 201s-82 126-100 166l50-107 21-74 16-128-13-122-41-122-86-131-73-49-34 12c-11 4 176 234 48 531 0 0 18-121-9-193 0 0-73 299-334 437-262 137-453-110-275-291 0 0-101 14-118 53-17 38-64 53-78 121-9 41-13 84-11 126-4 34-5 68-1 102 7 55 60 118 60 118l21 17-126 50-401 142-385 92-375 85-230 4-141-26-54-95-212-107-82 21-117 72c-39 24-114 157-94 245 21 91 48 305 880 170 831-135 1296-335 1296-335Zm800-472 39-51-55 82c-46 70-113 93-163 131l89-68 90-94Zm-305 212 118-44c-42 29-98 48-176 65l58-21Zm-393-8 165 50c-43 0-78-5-107-15-53-17-119-85-119-85l61 50Z" fill="#4B4B4B"/>
  <path d="m4750 4763-48-172-85-239-76-249-57-184-58-204-66-213-66-129-121 54-180 90-273 114-248 70c-83 24 184 74 234 132 51 59 147 93 180 150 34 56 79 89 96 132 17 44 44 63 62 120 79 158 149 343 152 422 0 0 45-153 46-332 0 0 215 660-99 990-305 321-153 311-57 267 96-45 271-155 271-155l178-140 154-143 120-149 4-27-63-205Z" fill="#383838"/>
  <path d="M2747 5040c-80-625-591-877-794-869l239 1496 14 16 301 105c646-176 373-953 300-1046 13 179-60 298-60 298ZM4980 2591l-40-64-66-63-93-41-160-28-14 17c267 54 328 316 132 618l82-36 54-60c17-20 66-84 67-86l35-90 8-78-5-89ZM1138 3905c-202-164-90-371 166-606 0 0-126 50-289 179-164 128-151 238-151 238l13 141c4 46 58 103 68 113 9 10 133 64 133 64l139 22 203 33h133l294-59c98-20-507 39-709-125Z" fill="#A7A5A5"/>
  <path d="M2241 4259c-117 1-211-7-274-24l12 100 1 3 61 386c211 21 419 21 621 4a994 994 0 0 0-421-469Z" fill="#DF6064"/>
  <path d="M4044 4235c-18-56-45-76-62-120-17-43-62-76-96-132-13-23-36-42-62-60-200 88-421 157-639 210 224 84 407 213 531 350 134-52 256-110 365-170-12-27-24-53-37-78Z" fill="#AA282A"/>
  <path d="M4370 3581a1861 1861 0 0 1-546 342c26 18 49 37 62 60 34 56 79 89 96 132 17 44 44 64 62 120l37 77c176-97 315-200 406-299l-117-432Z" fill="#771C1C"/>
  <path d="M3185 4133c-351 84-697 125-944 126a994 994 0 0 1 421 469c386-32 749-125 1054-245a1373 1373 0 0 0-531-350Z" fill="#D63D3D"/>
  <path d="m1346 1867-31 34-40 146 133 94 32-104-69-174-25 4ZM1140 2875l-40 307 29 31h72l115-561-126-9-50 232ZM1528 590l-13 19-132 798 43 7 60 3 100-42c33-14 9-196 55-401 45-204 68-350 68-350s-91-55-181-34Z" fill="#C6CACD"/>
  <path d="m1364 2112 36 31 40-103-44-48-32 120ZM1260 2829l55-172-104-6c30 27 54 79 49 178Z" fill="#A1A5A8"/>
  <path d="m1508 602-43 328-88 511c-30 170 22 30 24 31l29 2 53-63c-34-46 20-206 44-351 23-145 86-408 45-474l-64 16ZM1300 1897l-16 138 59 40 35-129-19-88-59 39Z" fill="#F6FBFD"/>
  <path d="m1583 982-21 109c15 9 30 20 42 33l23-103c-7-19-23-31-44-39Z" fill="#771C1C"/>
  <path d="m1524 1060-3 17c13 2 32 9 43 15l22-109c-13-5-31-10-45-12-6 32-13 62-17 89Z" fill="#AA282A"/>
  <path d="m1458 969-7 41v99c23-29 49-35 73-32l3-17 16-89c-35-5-71-3-85-2Z" fill="#D63D3D"/>
  <path d="M4955 2909c186-246 92-632-584-590 0 0-115-224-369-294-7-138-87-237-163-302s-122-165-164-205c0 0 78-152 65-338a501 501 0 0 0-173-361l65-6c-95-115-245-219-567-155l31-79c-178 23-307 169-383 448-162-7-515 120-684 293a562 562 0 0 0-411-76l122-622c-41-77-187-127-260-25l-151 925c-13 17-25 35-36 54a308 308 0 0 0-18 275l-23 142c-143-62-374-52-490 208-111 252 32 625 309 901l-13 78c5 53 103 115 170 57l20 14s-248 135-387 321c-138 187-97 488 269 538 366 49 740 12 740 12l255 1578c85 525 273 197 739 217s1569-161 2003-935l-491-1611s393-216 579-462Zm-644-431c11 141-65 327-69 336 4-5 67-78 97-145 0 0-22 265-275 475s-567 143-652-64c0 0 183 153 425 20 0 0-269 39-377-107-106-143 51-308 280-353 205-41 254-156 254-156s-96 39-161 49c0 0 147-197 156-399 199 89 311 200 322 344ZM1543 612s72-31 135 25l-123 631c-14 7-27 15-39 25 11 2 22 6 32 11l-8 42c-17 8-72 36-131 89l134-823Zm-159 977a450 450 0 0 1 200-171c52-23 108-37 164-40 57-3-29-49-56-68 0 0 139-17 270 86 0 0-79 67-108 217 0 0 221-260 468-386 247-125 565-151 849-102 0 0-94-102-358-100 0 0 36-196 160-300 0 0-4 38 2 75 0 0 224-161 468-38 0 0-48 23-67 44 0 0 169 66 243 212 68 132-9 351-24 390 0 0-68-93-172-144 111 143 166 287 252 398 85 111 235 185 222 398-13 205-118 428-197 488-93 13-287 63-377 271a416 416 0 0 0 37 385s-242 89-551 178c-331-2-677-47-766-52 121 66 337 121 428 142-88 21-178 40-264 55-90 4-437-67-691-223-87-54-177-114-264-184l50-254c136 131 314 187 314 187s-212-166-296-279l22-113c87-26 164-101 172-250 0 0 84 51 161 60 21 53 22 104 25 163-80-1-164-20-170-21 7 5 114 98 179 120a614 614 0 0 0 791 491s-462 5-625-336c-130-271-34-261-127-477-80-186-81-420-67-511 0 0-81 53-89 209 0 0-68-32-120-113-18-28-32-58-42-89-14-44-21-96-18-157 0 0-29 9-60 36l-7 6c-21-60-5-134 39-203Zm55 577 10-53c36 46 85 89 150 117 0 0 11 72 33 113 0 0-80-26-138-68 0 0-17-49-55-109Zm-111-235s10-18 23-30c0 0 11 67 53 142l-12 59c-23-28-50-53-80-75l16-96Zm-481 654c-125-341 115-590 317-536a304 304 0 0 1 132 75 384 384 0 0 1 114 186c21 80 10 163-44 227-19 22-42 40-69 52-26 12-54 17-80 19a345 345 0 0 1-130-14c12 20 33 38 59 51l-54 328a1127 1127 0 0 1-245-388Zm355 493-24 120v1c-20 0-40-8-54-23l4-20 20-127 60-363c24 5 48 7 73 6l-79 406Zm-13 935c-243-31-334-219-219-408 114-189 375-297 375-297l54 35c-296 185-235 412-111 480-62-136-3-324 234-407 43 24 85 47 121 62-80 222 265 201 738 109 474-92 1045-306 1045-306 188 163 546 105 770-133 345-378 213-719 213-719 202-25 617 41 515 330-101 289-849 748-1829 1009-979 260-1663 277-1906 245Zm3569 957c-54 119-420 440-690 566 6-6 193-219 215-486 0 0-307 532-765 661-264 66-869 155-1279-60-75-368-254-1456-252-1548 110 2 731-115 1326-288 537 20 779 530 787 546a917 917 0 0 0-454-650c254-86 482-181 635-280l477 1539Z" fill="#000"/>
  <path d="M2683 2701c24 47 136 216 298 132 147-77 106-274 80-310 93-96 9-206 9-206-10 181-157 212-223 172 0 0-89 200-294 102 0 0 20 98 130 110Zm181-103s72 20 131-19c68 203-162 277-237 105 67-31 106-86 106-86ZM2757 2409c43-11 94-49 129-131 36-81 4-141-90-128-93 13-234 88-231 146s106 133 192 113Zm-122-119c31-19 66-39 134-59 68-21 83 23 36 74-46 52-99 75-168 20-25-20-9-30-2-35ZM2983 2025c159 54 229 168 422 64 126-68 171-246 17-413-155-167-427-214-563-155-136 58-175 188-175 188-55 219 140 262 299 316Zm0-466c166-15 320 103 348 127 155 132 154 284 38 351-115 67-291-40-410-87-110-44-187-47-213-147-26-99 72-230 237-244ZM2147 2629c122 8 214-68 250-164 35-96 20-166 66-293 46-128 84-326-131-377-222-54-410 184-431 436-19 244 89 389 246 398Zm-178-444c24-240 269-408 407-300 129 101 27 241 0 375s-50 303-224 308c-175 6-197-253-183-383Z" fill="#000"/>
  <path d="m2166 2332 17 8c-27-41-31-96-7-145 32-64 103-95 165-75-12-18-28-33-48-43-66-33-148-2-183 68-35 71-10 154 56 187ZM3083 1751c54 4 99 37 120 81l3-19c6-73-53-138-132-144-78-7-147 48-153 121-1 22 3 44 12 63 15-63 78-108 150-102Z" fill="#040002"/>
  <path d="M648 3087s-37 131-142 217a474 474 0 0 1 142 216s36-131 142-216c-106-86-142-217-142-217ZM2465 510s43-154 168-255A559 559 0 0 1 2466 0s-43 154-168 255a558 558 0 0 1 167 255Z" fill="#000"/>
  <path d="M4250 1551s39-140 152-231c-113-92-152-231-152-231s-39 139-151 231a506 506 0 0 1 151 231ZM5387 2621s-27 98-107 163c80 65 107 163 107 163s28-98 107-163c-79-65-107-163-107-163Z" fill="#040002"/>
  <path d="M5118 3137s-43 154-167 255c124 101 167 255 167 255s43-154 167-255a559 559 0 0 1-167-255ZM2023 826s37-126 142-208a454 454 0 0 1-142-208s-36 126-142 208a453 453 0 0 1 142 208Z" fill="#000"/>
</svg>
