<svg xmlns="http://www.w3.org/2000/svg" viewBox="0 0 96 96" width="100" height="100">
  <path d="m47.66 88.83.7.37.7-.37 13.12-6.91 2.51-1.32-2.5-1.33-11.47-6.09 9.2-4.85 13.26 7.04.7.37.7-.37 13.12-6.92 2.5-1.32-2.5-1.33-38.36-20.38-.7-.37-.7.37-13.13 6.93-2.5 1.32 2.5 1.33 12.27 6.52-9.18 4.84-14.08-7.47-.7-.38-.7.37L9.3 65.8l-2.5 1.32 2.5 1.33 38.36 20.38Z" stroke="#fff" stroke-width="3" stroke-miterlimit="10"/>
  <path d="M48.36 46.96 10 26.58l13.12-6.91L37.9 27.5l12.4-6.53-14.77-7.85L48.64 6.2 87 26.58 73.88 33.5l-13.96-7.42-12.4 6.56 13.96 7.4-13.12 6.92Z" fill="url(#a)"/>
  <linearGradient id="a" x1="85.56" y1="28.17" x2="29.01" y2="58.64" gradientUnits="userSpaceOnUse">
    <stop offset=".23" stop-color="#AA31FF"/>
    <stop offset=".39" stop-color="#326BFF"/>
    <stop offset=".83" stop-color="#01FFFF"/>
  </linearGradient>
</svg>
