<svg xmlns="http://www.w3.org/2000/svg" viewBox="0 0 100 100" width="100" height="100">
  <path d="M100 25c0-13.8-11.2-25-25-25H25C11.2 0 0 11.2 0 25v50c0 13.8 11.2 25 25 25h50c13.8 0 25-11.2 25-25V25Z" fill="#65ADF1"/>
  <path d="M82.33 49.99v.1c0 .03-.02.05-.05.05a6.33 6.33 0 0 0-5.8 6.3V69.8c0 .93-.2 1.83-.56 2.66a6.58 6.58 0 0 1-5.97 4.06h-6.76l-.05-.06-26.28-32.95v33h-6.8A6.52 6.52 0 0 1 23.52 70V56.43a6.32 6.32 0 0 0-5.81-6.29.05.05 0 0 1-.05-.05V50c0-.03.02-.05.05-.05a6.4 6.4 0 0 0 5.78-6.36V30a6.5 6.5 0 0 1 6.53-6.53h6.8l.03.04 26.28 32.94V23.47h6.83c3.6 0 6.53 2.93 6.53 6.53v13.58a6.4 6.4 0 0 0 5.78 6.36c.03 0 .05.02.05.05Z" fill="#fff"/>
</svg>
