<svg xmlns="http://www.w3.org/2000/svg" viewBox="0 0 360 360" width="100" height="100">
  <path d="M171.5 357.7a17 17 0 0 0 17 0l141.1-81.4a17 17 0 0 0 8.5-14.8v-163a17 17 0 0 0-8.5-14.7l-141-81.5a17 17 0 0 0-17.1 0L30.4 83.8a17 17 0 0 0-8.5 14.7v163a17 17 0 0 0 8.5 14.8l141 81.4" fill="#76D04B"/>
  <path d="m271.4 141.2-6.3-3.7c9.6-14.2 15.4-35.7 8.2-67.8 0 0-16.4 45.8-49.2 44.3l-38.4-22.2a10 10 0 0 0-4.7-1.3h-1c-1.6 0-3.2.5-4.7 1.3L137 114c-32.8 1.5-49.2-44.3-49.2-44.3-7.2 32-1.4 53.6 8.3 67.8l-6.3 3.7a10.4 10.4 0 0 0-5.2 9l.2 132.7a5 5 0 0 0 2.6 4.5 5 5 0 0 0 5.1 0l51-29.2c3.1-1.9 5.1-5.3 5.1-9v-62c0-3.7 2-7.1 5.2-9l21.6-12.4a10.2 10.2 0 0 1 10.4 0l21.7 12.5c3.2 1.8 5.1 5.2 5.1 9v62c0 3.6 2 7 5.2 9l51 29a5.2 5.2 0 0 0 7.7-4.5l.1-132.7c0-3.7-2-7.1-5.1-9Z" fill="#4F4D3F"/>
</svg>
