<svg xmlns="http://www.w3.org/2000/svg" viewBox="0 0 100 100" width="100" height="100">
<path d="M49.95 58.9 36.9 79.43 15.26 44.31l-.05 36.76H0V18.93h15.38l21.86 36.8.02-16.65L49.95 58.9Zm2.5-24c.1-.2 0-15.76.03-15.97h-15.2c0 .25-.03 15.74-.02 15.97h15.19Zm23.47 17.23a8.59 8.59 0 0 0-8.2 5.57 8.18 8.18 0 0 1 9.76-3.08c1.65.67 3.82 1.76 5.55 1.18a8.75 8.75 0 0 0-7.1-3.67Zm14.13 4.42c-1.56-.54-3.33-1.15-4.62-2.84-.25-.33-.48-.7-.73-1.1a8.93 8.93 0 0 0-2.23-2.68c-1.22-.9-2.83-1.34-4.91-1.34A10.34 10.34 0 0 0 68 55a9.69 9.69 0 0 1 16.67 1.62A3.12 3.12 0 0 0 88.16 58c2.05-.44 1.92 1.5 5.01 2.16v-.56c-.01-1.85-1.02-2.29-3.12-3.05Zm8.43 5.28a3.01 3.01 0 0 0 1.45-2.66C99.89 46.85 89.89 36.3 77.55 36.3a22.35 22.35 0 0 0-18.7 10.08c-.03-.1-6.33-9.96-6.4-10.08H37.26L51.7 58.9 37.61 81.07h14.75l6.42-9.86 6.53 9.86h14.76L66.69 60.02a2.92 2.92 0 0 1-.35-1.34 11.2 11.2 0 0 1 11.21-11.2c6.2 0 7.24 3.7 8.58 5.44 2.64 3.44 7.91 1.93 7.91 6.42a2.94 2.94 0 0 0 4.44 2.48Zm1.46.55c-.72 1.55-2.33 1.4-3.14 2.66-.74 1.13.47 1.72.47 1.72s1.4.65 2.24-1.3c.44-.96.59-2.03.43-3.08Z" fill="#000"/>
</svg>
