<svg xmlns="http://www.w3.org/2000/svg" viewBox="0 0 48 48" width="100" height="100">
  <path d="m40.64 48-8.38-8.34-.13.01v-.09L14.3 21.98l4.4-4.24-2.58-14.81L3.87 18.1a6.73 6.73 0 0 0-.97 8.04l7.65 12.7a6.43 6.43 0 0 0 5.58 3.1l3.8-.04L40.63 48Z" fill="#18B6F6"/>
  <path d="m45.22 17.8-1.68-3.1-.88-1.59-.35-.62-.04.04-4.61-8A6.46 6.46 0 0 0 32 1.3l-4.04.11-12.06.04a6.46 6.46 0 0 0-5.53 3.18L3.03 19.18 16.15 2.89l17.2 18.9-3.05 3.1 1.83 14.78.02-.03v.03h-.04l.04.04 1.43 1.39 6.94 6.78c.29.28.76-.05.56-.4l-4.28-8.43 7.47-13.8.24-.28a6.35 6.35 0 0 0 .71-7.17Z" fill="#AC7EF4"/>
  <path d="M33.41 21.72 16.15 2.91l2.45 14.73-4.39 4.26L32.1 39.66l-1.62-14.74 2.93-3.2Z" fill="#fff"/>
</svg>
