<svg xmlns="http://www.w3.org/2000/svg" viewBox="0 0 100 100" width="100" height="100">
  <rect width="100" height="100" rx="10" fill="#eee"/>
  <path d="M79.26 64.63c-.07-.41-.18-.8-.22-1.12l-.02-.14v-.06l-.01-.05V63l.06-.57a3.03 3.03 0 0 0-.15-1.35c-.3-.85-.82-1.5-1.28-2.08-.46-.6-.97-1.15-1.51-1.67-.55-.51-1.14-.9-1.63-1.26l-.34-.27-.16-.13-.15-.15a7.09 7.09 0 0 1-1.76-2.69c-.2-.54-.25-.87-.25-.86 0 0-.1-.36-.12-1-.03-.88.2-1.74.66-2.49l-.72-.66c-1.33 1.01-2.95 2.28-4.84 3.32-.95.52-1.97.97-3.03 1.28-1.05.3-2.14.46-3.24.46a8.93 8.93 0 0 1-3.03-.54 6.97 6.97 0 0 1-2.32-1.4 4.87 4.87 0 0 1-1.57-3.23c-.08-.96.06-1.84.23-2.65.18-.8.42-1.54.66-2.26.5-1.44 1.08-2.78 1.73-4.4l-.33.51.93-2.42c.1-.14.22-.27.31-.42.13-.21.24-.44.33-.67l.23-.65.13-.3.14-.3 1.32-2.8.6-1.35a8.48 8.48 0 0 1 .42-.88c.18-.32.37-.66.56-1.05l.14-.3.13-.31c.08-.2.15-.4.23-.57a2.5 2.5 0 0 1 .21-.35l.1-.13.41-.57c.54-.77 1.02-1.56 1.6-2.23a15.78 15.78 0 0 1 3.68-3c1.1-.69 1.82-1.12 1.82-1.12l.85-.5c.28-.17.61-.4.95-.63.35-.23.73-.48 1.13-.63l.9-.33-.78-.55a6.34 6.34 0 0 1-1.94-2.53 26.09 26.09 0 0 1-1.78-5.85c-.05-.24-.08-.48-.12-.73A3.5 3.5 0 0 0 68.2 7a1.99 1.99 0 0 0-.32-.52c-.21-.25-.5-.4-.83-.46a1.75 1.75 0 0 0-.54 0c-.4.06-.7.2-.98.34a5.97 5.97 0 0 0-1.33.94c-.16.13-.38.3-.56.48-.1.1-.2.21-.27.33a.88.88 0 0 0-.1.25.62.62 0 0 0 0 .34.57.57 0 0 0 .47.38c.15.03.28.02.4 0 .5-.05.96-.21 1.46-.37-.53 0-1.02.02-1.45-.05a1 1 0 0 1-.27-.07c-.03-.01-.03-.02-.04-.04h.03l.05-.06.2-.16c.17-.12.35-.21.57-.35l.62-.39a8 8 0 0 1 .66-.35c.22-.1.46-.2.68-.23.16-.02.33-.01.44.09.13.1.27.4.34.84l.12.72a33.99 33.99 0 0 0 .58 2.53c.17.59.36 1.18.57 1.78.2.6.44 1.2.71 1.79.28.58.6 1.14.98 1.65.2.27.43.52.67.75-.22.13-.42.27-.6.39-.37.25-.65.45-.91.6l-.85.5-1.84 1.12c-1.11.7-2.65 1.73-3.91 3.2l-.23.29a13.66 13.66 0 0 0-.65.87l-.78 1.15-.39.54-.1.14c-.12.16-.22.33-.3.5-.12.24-.2.45-.27.65l-.11.27-.12.26c-.17.35-.37.69-.54 1.02a12.85 12.85 0 0 0-.47.95l-.6 1.34-.45 1.09c-.43-.9-1.23-2.03-1.23-2.66 0-.87.22-1.64.5-2.45.17-.5.3-1 .45-1.5.13-.42.42-.8.56-1.2.19-.51.42-1 .62-1.52.12-.3.36-.75.34-1.07-.25.29-.31.62-.48.95-.2.43-.53.8-.76 1.22-.4.7-.9 1.48-1.48 2.06-.5.5-1.36.86-2.03 1.03-.37.1-.86.27-1.14-.07-.24-.3-.21-.88-.16-1.22-.34.24-.19.69-.73.72-.68.97-1.13 1.88-.71 3.07.45 1.27 1.34 2.33 1.61 3.68.28 1.4-.14 2.78-.57 4.1a89.04 89.04 0 0 1-1.6 4.67 48.05 48.05 0 0 1-5.7 10.88c-2.25 3.07-5.34 5.3-7.89 8.08-2.78 3.03-5.79 5.65-9.55 7.38 2.2 1.35 2.4 3.84 3.95 5.94 1.03 1.4 2.45 3.86 3.98 5.71-.94-.63-1.8-1.38-2.56-2.21-.51-.57-1-1.2-1.49-1.82l-1.43-1.83-.7-.87-.66-.86c-.85-1.16-1.64-2.3-2.5-3.27a13.9 13.9 0 0 0-.66-.7c-.14-.13-.3-.24-.44-.36l.68-.34A74.66 74.66 0 0 0 43.7 53.24a34.27 34.27 0 0 0 4.17-5.62c.27-.48.53-.95.76-1.42.24-.47.44-.94.64-1.37l1.1-2.46.86-2.04c.25-.62.42-1.17.55-1.6.5-1.75.7-3.32.84-4.77l.02-.27a3.29 3.29 0 0 0-.45-1.97c-.32-.63-.66-1.15-.82-1.72l-.04-.17-.14-.06-.28-.12-.26-.58c-.1-.21-.19-.43-.25-.66-.02-.1-.03-.2-.02-.3 0-.05.02-.1.03-.13 0-.03.02-.05.03-.08l.04-.07c.12-.2.27-.4.44-.6.35-.38.73-.77 1.06-1.23.33-.45.53-1 .95-1.4-.47.36-.74.9-1.1 1.28-.37.4-.77.74-1.17 1.1-.2.18-.4.38-.56.6l-.06.1c-.06.1-.1.22-.14.34-.03.15-.03.31-.01.47.07.58.34 1.06.46 1.5l.03.12.13.08.24.12c.15.65.46 1.22.7 1.76.13.3.23.58.28.87.04.22.04.44.02.66l-.04.27a30.45 30.45 0 0 1-.89 4.58c-.12.41-.28.92-.52 1.5-.24.6-.53 1.27-.86 2.02l-1.09 2.45c-.2.44-.4.89-.62 1.33-.22.45-.47.9-.73 1.36-2.1 3.68-5.64 7.35-9.19 10.61a75.6 75.6 0 0 1-10.18 7.8c-.71.46-1.36.86-1.95 1.18-.38.21-.78.4-1.18.57a7.1 7.1 0 0 0-1.2-.5l-.18-.05-.1-.03a1.81 1.81 0 0 0-2.14.95l-.2.43.4.23c.48.28.96.41 1.29.44.32.02.49 0 .49 0s.16 0 .46-.06c.26-.05.64-.14 1.1-.3.06.04.13.06.2.11.4.3.8.7 1.21 1.15.81.9 1.58 2.02 2.45 3.2.21.3.44.6.68.89l.7.88 1.42 1.82c.5.62.97 1.24 1.54 1.87.55.61 1.17 1.18 1.82 1.7a17.69 17.69 0 0 0 3.16 2l1.09.53c.37.18.75.35 1.16.49.4.13.83.24 1.3.25a2.65 2.65 0 0 0 1.34-.33 8.93 8.93 0 0 0 2.73-2.06c.5.57 1.6 1.82 2.5 2.87L49 85.53s.6.84 1.21 1.8c.5.77.97 1.57 1.39 2.4.23.44 1.56 2.1 2.55 3.23a5.1 5.1 0 0 0 .98 1.04c-.26-.98-.27-1.61-.82-2.7l-.34-.6-.2-.4a2.15 2.15 0 0 1-.08-.2c-.03-.07-.04-.11-.06-.22l-.11-.56c-.04-.22-.1-.44-.16-.66-.11-.4-.21-.82-.3-1.23l-.47-2.24-.09-.4-.05-.3-.05-.26s-.04-.37-.18-1.02c-.04-.17-.09-.35-.15-.52l-.08-.25-.08-.26c-.1-.38-.2-.77-.26-1.16-.08-.4-.11-.82-.19-1.28l-.14-.83a16.5 16.5 0 0 1-.05-3.78c.57-.11 1.16-.14 1.75-.1a15.76 15.76 0 0 0 3.1.63l.13.01H56.32l.02.01.23.03a141.73 141.73 0 0 0 9.6 1c-.06.6-.1 1.2-.1 1.8.12-.63.27-1.22.42-1.78l.62.05-.6-.12a29.86 29.86 0 0 1 1.37-3.9c.27-.48.56-.97.94-1.34.4-.37.86-.54 1.46-.43l.17.04.24.06c.18.05.38.13.73.11.18-.01.35-.06.5-.15.15-.07.25-.15.35-.23.22-.17.36-.29.56-.4.38-.22.85-.36 1.4-.4.29-.01.55 0 .9.03.18 0 .38 0 .6-.03.3-.04.59-.16.83-.36l.06-.05.05-.05a6.28 6.28 0 0 0 .57-.66c.23-.3.43-.6.64-.86.2-.25.5-.53.74-.85a3.2 3.2 0 0 0 .69-1.54c.02-.13.02-.24.02-.36 0-.22-.03-.44-.07-.66ZM63.82 8.55v.02l-.02.02-.03-.02h-.01l.06-.02ZM22.8 67.75h-.33l-.26-.05c.04-.02.06-.05.1-.06a.8.8 0 0 1 .4-.01l.05.01.08.03.16.05H23l-.2.03Zm41.28-14.36c1.12-.34 2.2-.8 3.23-1.36a29.5 29.5 0 0 0 3.2-2.08 15.39 15.39 0 0 1-5.47 3.38 11.3 11.3 0 0 1-3.66.53c.9-.05 1.82-.21 2.7-.47ZM45.02 80.92c0 .02.08-.03.16-.09h.01c-.1.08-.21.16-.17.09Zm6.23 2.52c.12.54.17.95.17.94l.05.28.06.33.08.4.47 2.25a23.84 23.84 0 0 0 .4 1.62c-.19-.4-.8-1.51-1.42-2.48-.63-.98-1.25-1.83-1.25-1.83s-.6-.86-1.28-1.79c-.33-.46-.68-.96-1-1.37l-.66-.9-.26-.31c-.16-.3-.52-1.11-.52-1.11s.28-1.17 1.53-2.43a7.5 7.5 0 0 1 2.31-1.52c.05.99.19 2.98.6 4.82.04.28.08.57.14.85.07.44.17.87.28 1.26l.09.3.09.26c.06.17.09.29.12.43Zm27.06-17.91-.01.1-.02.11a2.2 2.2 0 0 1-.44.82c-.22.28-.47.52-.73.84-.26.32-.46.62-.66.9l-.31.37-.16.16-.03.03-.04.04-.05.03c-.15.1-.38.13-.68.11-.3-.01-.67-.04-1-.02-.67.03-1.34.22-1.86.53-.25.15-.5.35-.65.47l-.22.15a.24.24 0 0 1-.1.03c-.07.01-.24-.02-.39-.07l-.24-.07-.27-.05a2.58 2.58 0 0 0-1.29.07 2.6 2.6 0 0 0-1 .65c-.52.54-.8 1.12-1.05 1.66l-.02.03a18.42 18.42 0 0 0-.9 4.17c-2.14-.41-4.04-.78-6-1.14l-3.48-.63-.23-.04h-.03l-.05-.02h-.06l-.11-.02-.46-.06c-.32-.05-.63-.11-.94-.18l-.59-.13c-6.94-1.27-9.32 4.98-9.32 4.98-.12.32-.24.6-.4.8a7.84 7.84 0 0 1-2.92 2.05 1.7 1.7 0 0 1-.44.05c-.45 0-.93-.15-1.42-.35 1.77-.77 3.46-3.86 4.36-5.2 1.12-1.66 2.08-3.31 3.82-4.42 2.43-1.56 4.43.63 7.08 1.65 3.8 1.46 6.62 1.33 5.63 0-.79-1.07 2.66.64 3.82-.13 1.03-.69 1.6-1.86 2.27-2.86.3-.45.63-.85 1-1.21.85-.55 1.73-1.04 2.62-1.53 2.19-.77 4.97-1.28 6.1-3.38.59-1.12.03-2.16-.74-3.01-1.04-1.14-2.25-2.08-3.16-3.33-.97-1.35-1.28-3.2-1.3-5.08a8.19 8.19 0 0 0 1.91 2.85l.17.16a5.56 5.56 0 0 0 .58.47c.53.39 1.07.74 1.54 1.2.49.44.96.97 1.4 1.54.46.58.91 1.17 1.13 1.79a1.95 1.95 0 0 1 .1.94c-.02.19-.05.39-.06.6v.52l.03.16c.06.44.17.82.23 1.17a3.11 3.11 0 0 1 .04.73ZM54 19.7c.18.37.39.65.56.87l.01.02c.22.36.54.66.92.84.11.05.24.07.35.04.34.1.67.12 1.06.1l-.7-.73-.05-.06a.52.52 0 0 0-.2-.24 57.85 57.85 0 0 1-.53-.52c-.15-.24-.2-.51-.2-.5a3.48 3.48 0 0 1-.06-.68c0-.36.04-.78.06-.91.02-.26-.12-.43-.4-.7a3.1 3.1 0 0 0-.18.09c.05-.42.16-.81.26-1.1.71.03 1.24.26 1.78.85.52.58.83 1.33 1.35 1.89.63.67 1.48-.6 1.9-1.65.12-.05.23-.13.34-.25.09-.1.26-.3.41-.63.08-.16.15-.38.15-.63 0-.26-.1-.51-.25-.73a1.68 1.68 0 0 0-1.02-.63.93.93 0 0 0-.54.1l-.02.02-.02-.14a3 3 0 0 0-.03-.16.93.93 0 0 0-.1-.24c-.06-.1-.13-.17-.2-.25a.85.85 0 0 0-.28-.18.7.7 0 0 0-.65.08.64.64 0 0 0-.2.23l-.05.12-.28.32c-.04-.07-.06-.13-.12-.2a1.03 1.03 0 0 0-1.04-.42c-.14.03-.29.08-.42.15a2.15 2.15 0 0 0-1.3 1.17l-.04.1s-.14.28-.3.73a5.94 5.94 0 0 0-.36 1.8 4.5 4.5 0 0 0 .4 2.03Zm5.48-4.25.05.02.06.04c.07.04.13.1.18.16.02.02.02.04.02.06a1.2 1.2 0 0 0-.35-.06c0-.11.02-.2.04-.22Zm-3.15 30.13c.36.32.58.52 1.05.53a6.73 6.73 0 0 0 .7-.04c.35-.04.69-.11 1.02-.2.68-.19 1.24-.44 1.24-.44l.7-.32c.4-.2.88-.47 1.26-.7l.58-.37-.5-.43c-.2-.16-.34-.19-.46-.21l-.28-.03-.35.01c-.49.06-.7.3-.99.69l.3.15-.64.3s-.53.22-1.12.38a5.5 5.5 0 0 1-1.45.21c-.41 0-.69.16-1.06.47Zm8.27-34.47c.44.22 1.57.66 1.94.22.06 0 .1.01.11.07V9.77c0-.42-.12-.7-.58-.62-.31.04-.59.22-.9.26-.25.02-.5 0-.74 0-.53 0-.98-.17-1.1.47h.31c-.58.33.79 1.14.96 1.23Zm-3.8 32.1.47-.31c-.82-.25-1.57-.61-2.35-.96-.75-.34-1.15-.29-1.33.59-.12.62-.19 1.59.7 1.46.84-.13 1.66-.6 2.51-.78Zm11.22 37.91a14.3 14.3 0 0 0 2.27-2.46l-2.25.22-.02 2.24Z" fill="#924"/>
</svg>
