<svg xmlns="http://www.w3.org/2000/svg" viewBox="0 0 160 160" width="100" height="100">
  <linearGradient id="a" x1="24" y1="5.4" x2="148.5" y2="65.9" gradientUnits="userSpaceOnUse">
    <stop offset=".1" stop-color="#76B3E1"/>
    <stop offset=".3" stop-color="#DCF2FD"/>
    <stop offset="1" stop-color="#76B3E1"/>
  </linearGradient>
  <linearGradient id="b" x1="92.3" y1="35" x2="70.5" y2="107.6" gradientUnits="userSpaceOnUse">
    <stop stop-color="#76B3E1"/>
    <stop offset=".5" stop-color="#4377BB"/>
    <stop offset="1" stop-color="#1F3B77"/>
  </linearGradient>
  <linearGradient id="c" x1="14.9" y1="66.6" x2="140.8" y2="152.2" gradientUnits="userSpaceOnUse">
    <stop stop-color="#315AA9"/>
    <stop offset=".5" stop-color="#518AC8"/>
    <stop offset="1" stop-color="#315AA9"/>
  </linearGradient>
  <linearGradient id="d" x1="71.7" y1="76.9" x2="20.9" y2="263.2" gradientUnits="userSpaceOnUse">
    <stop stop-color="#4377BB"/>
    <stop offset=".5" stop-color="#1A336B"/>
    <stop offset="1" stop-color="#1A336B"/>
  </linearGradient>
  <path d="M159.5 37.4s-53-39-94-30l-3 1c-6 2-11 5-14 9l-2 3-15 26 26 5c11 7 25 10 38 7l46 9 18-30Z" fill="#76B3E1"/>
  <path opacity=".3" d="M159.5 37.4s-53-39-94-30l-3 1c-6 2-11 5-14 9l-2 3-15 26 26 5c11 7 25 10 38 7l46 9 18-30Z" fill="url(#a)"/>
  <path d="m48.5 37.4-4 1c-17 5-22 21-13 35 10 13 31 20 48 15l62-21s-53-39-93-30Z" fill="#518AC8"/>
  <path opacity=".3" d="m48.5 37.4-4 1c-17 5-22 21-13 35 10 13 31 20 48 15l62-21s-53-39-93-30Z" fill="url(#b)"/>
  <path d="M130.5 82.4a45 45 0 0 0-48-15l-62 20-20 35 112 19 20-36c4-7 3-15-2-23Z" fill="url(#c)"/>
  <path d="M110.5 117.4a45 45 0 0 0-48-15l-62 20s53 40 94 30l3-1c17-5 23-21 13-34Z" fill="url(#d)"/>
</svg>
