<svg xmlns="http://www.w3.org/2000/svg" viewBox="0 0 20 20" width="100" height="100">
  <path d="M2.6 18.43 1.96 1.92A1 1 0 0 1 2.92.88L16.96 0a1 1 0 0 1 1.07 1v18a1 1 0 0 1-1.05 1l-13.43-.6a1 1 0 0 1-.96-.97Z" fill="#ff4785"/>
  <path d="M15.85.07 13.92.2l-.1 2.27a.15.15 0 0 0 .25.12l.88-.66.74.58a.15.15 0 0 0 .24-.12l-.08-2.3Zm-1.5 7.6c-.35.27-2.99.45-2.99.06.06-1.5-.61-1.56-.98-1.56-.36 0-.95.11-.95.91 0 .81.87 1.28 1.89 1.81 1.44.77 3.2 1.7 3.2 4.04 0 2.24-1.82 3.47-4.14 3.47-2.4 0-4.49-.97-4.25-4.32.09-.4 3.13-.3 3.13 0-.03 1.38.28 1.79 1.08 1.79.61 0 .9-.34.9-.9 0-.87-.91-1.38-1.95-1.96-1.41-.8-3.07-1.72-3.07-3.86 0-2.13 1.46-3.55 4.08-3.55s4.05 1.4 4.05 4.06Z" fill="#fff"/>
</svg>
