<svg xmlns="http://www.w3.org/2000/svg" viewBox="0 0 16 16" width="100" height="100">
  <path d="M13.8 2.12A4.88 4.88 0 007.26.72L3.54 3.08A4.3 4.3 0 001.6 5.94c-.18.98-.02 2 .44 2.9a4.15 4.15 0 00-.64 1.6 4.88 4.88 0 007.34 4.84l3.72-2.38a4.3 4.3 0 001.94-2.86c.18-.98.02-2-.44-2.9.32-.48.54-1.02.64-1.6a4.56 4.56 0 00-.8-3.42z" fill="#ff3e00"/>
  <path d="M6.94 13.92c-1.16.3-2.4-.16-3.08-1.14a2.67 2.67 0 01-.38-2.36l.06-.2.18.14c.42.32.9.56 1.42.7l.14.04-.02.14c-.02.2.04.38.14.54.2.3.58.44.94.36a.74.74 0 00.22-.1l3.62-2.3c.18-.12.3-.3.34-.5a.72.72 0 00-.14-.6.85.85 0 00-1.16-.24l-1.38.88a2.89 2.89 0 01-3.82-.82 2.67 2.67 0 01-.46-2.02c.12-.7.54-1.3 1.12-1.68l3.62-2.3a2.89 2.89 0 013.82.82 2.67 2.67 0 01.38 2.36l-.06.2-.18-.14a4.1 4.1 0 00-1.42-.7l-.14-.04.02-.14a.85.85 0 00-1.3-.78L5.82 6.3c-.18.1-.32.3-.34.5a.7.7 0 00.14.6.85.85 0 001.16.24l1.38-.88a2.89 2.89 0 013.82.82c.42.58.58 1.3.46 2.02-.12.7-.54 1.3-1.12 1.68l-3.64 2.3c-.24.16-.48.26-.74.34z" fill="#fff"/>
</svg>
