<svg xmlns="http://www.w3.org/2000/svg" viewBox="0 0 512 512" width="100" height="100">
  <path d="M374.94 177.66 262.81 339.8a9.66 9.66 0 0 1-15.9-.03 9.56 9.56 0 0 1-1.66-5.87l4.5-89.51-72.46-15.37a9.63 9.63 0 0 1-6.93-5.82 9.54 9.54 0 0 1 1.02-8.98L283.52 52.08a9.65 9.65 0 0 1 17.55 5.9l-4.5 89.51 72.46 15.37a9.64 9.64 0 0 1 6.93 5.82 9.53 9.53 0 0 1-1.02 8.98Z" fill="#FCC72B"/>
  <path d="M257.51 475.83a22.64 22.64 0 0 1-16.06-6.65L135.5 363.23a22.7 22.7 0 0 1 32.1-32.11l89.91 89.9 195.86-195.86a22.7 22.7 0 0 1 32.1 32.11l-211.9 211.9a22.61 22.61 0 0 1-16.06 6.66Z" fill="#729B1B"/>
  <path d="M257.42 475.83a22.64 22.64 0 0 0 16.06-6.65l105.95-105.95a22.69 22.69 0 0 0-16.06-38.72 22.72 22.72 0 0 0-16.05 6.6l-89.9 89.9L61.56 225.16a22.7 22.7 0 0 0-32.1 32.11l211.9 211.9a22.62 22.62 0 0 0 16.06 6.66Z" fill="#729B1B" fill-opacity=".5"/>
</svg>
